<?xml version="1.0" encoding="utf-8"?>
<!-- Generator: Adobe Illustrator 15.0.2, SVG Export Plug-In . SVG Version: 6.00 Build 0)  -->
<!DOCTYPE svg PUBLIC "-//W3C//DTD SVG 1.1//EN" "http://www.w3.org/Graphics/SVG/1.1/DTD/svg11.dtd">
<svg version="1.1" id="Layer_1" xmlns="http://www.w3.org/2000/svg" xmlns:xlink="http://www.w3.org/1999/xlink" x="0px" y="0px"
	 width="612px" height="792px" viewBox="0 0 612 792" enable-background="new 0 0 612 792" xml:space="preserve">
<g>
	
		<radialGradient id="SVGID_1_" cx="354.623" cy="725.8506" r="93.8995" fx="321.2004" fy="741.969" gradientTransform="matrix(1.5618 0 0 0.1429 -233.1256 253.2414)" gradientUnits="userSpaceOnUse">
		<stop  offset="0.1636" style="stop-color:#4B4B4B"/>
		<stop  offset="0.3818" style="stop-color:#706F6F"/>
		<stop  offset="0.703" style="stop-color:#DADADA"/>
		<stop  offset="0.9091" style="stop-color:#FFFFFF"/>
	</radialGradient>
	<path opacity="0.39" fill-rule="evenodd" clip-rule="evenodd" fill="url(#SVGID_1_)" d="M186.688,355.795
		c-7.864,7.034,48.133,13.322,125.044,14.045c76.916,0.716,145.668-4.404,153.541-11.438c7.869-7.036-48.129-13.327-125.045-14.041
		C263.317,343.639,194.561,348.762,186.688,355.795z"/>
	<g>
		<radialGradient id="SVGID_2_" cx="413.0049" cy="133.957" r="38.0899" gradientUnits="userSpaceOnUse">
			<stop  offset="0" style="stop-color:#00ABD4"/>
			<stop  offset="0.46" style="stop-color:#365684"/>
			<stop  offset="1" style="stop-color:#34355A"/>
		</radialGradient>
		<path fill-rule="evenodd" clip-rule="evenodd" fill="url(#SVGID_2_)" d="M324.723,107.978
			c13.414-7.509,27.023-12.366,38.855-13.873c21.967-2.811,42.332-4.394,63.125,3.452c8,3.021,14.67,6.936,19.717,11.923
			c2.781,6.27,4.121,12.17,4.252,17.608l-0.016-0.536c1.197,13.369-3.586,23.343-11.928,29.702
			c-16.842,12.508-40.797,8.585-55.908,2.445C363.23,150.749,344.793,129.331,324.723,107.978z"/>
		
			<radialGradient id="SVGID_3_" cx="302.8188" cy="277.3691" r="89.1155" fx="288.1431" fy="252.3297" gradientUnits="userSpaceOnUse">
			<stop  offset="0" style="stop-color:#00ABD4"/>
			<stop  offset="0.4548" style="stop-color:#365684"/>
			<stop  offset="0.8047" style="stop-color:#34355A"/>
			<stop  offset="1" style="stop-color:#000000"/>
		</radialGradient>
		<path fill-rule="evenodd" clip-rule="evenodd" fill="url(#SVGID_3_)" d="M364.096,252.607c-0.203,15.367-2.803,29.58-7.412,40.585
			c-8.553,20.428-17.369,38.857-34.555,52.939c-6.616,5.418-13.341,9.234-20.184,11.111c-6.818-0.723-12.602-2.51-17.377-5.117
			l0.471,0.252c-12.175-5.648-18.42-14.777-19.757-25.178c4.93,1.34,12.963-39.625,25.836-49.642
			C307.801,264.571,335.566,259.308,364.096,252.607z"/>
		
			<radialGradient id="SVGID_4_" cx="204.5225" cy="110.3999" r="75.4951" fx="194.8898" fy="127.6509" gradientTransform="matrix(1 0 0 0.8268 0 19.1199)" gradientUnits="userSpaceOnUse">
			<stop  offset="0" style="stop-color:#00ABD4"/>
			<stop  offset="0.3606" style="stop-color:#365684"/>
			<stop  offset="1" style="stop-color:#34355A"/>
		</radialGradient>
		<path fill-rule="evenodd" clip-rule="evenodd" fill="url(#SVGID_4_)" d="M234.268,139.504c2.904,20.942-6.42,47.615-14.884,75.673
			c-13.21-7.862-24.215-17.223-31.444-26.713c-13.414-17.621-24.967-34.466-28.565-56.396c-1.389-8.438-1.332-16.171,0.467-23.034
			c2.697-2.859,5.625-5.34,8.809-7.419C201.634,80.075,229.18,102.825,234.268,139.504z"/>
		<radialGradient id="SVGID_5_" cx="306.4985" cy="156.2959" r="201.761" gradientUnits="userSpaceOnUse">
			<stop  offset="0" style="stop-color:#FFFFFF"/>
			<stop  offset="0.2" style="stop-color:#FFFFFF"/>
			<stop  offset="0.46" style="stop-color:#EDEDED"/>
			<stop  offset="0.58" style="stop-color:#DADADA"/>
			<stop  offset="0.8" style="stop-color:#706F6F"/>
			<stop  offset="1" style="stop-color:#1D1D1B"/>
		</radialGradient>
		<path fill-rule="evenodd" clip-rule="evenodd" fill="url(#SVGID_5_)" d="M163.412,177.706
			c-7.887,77.078,48.229,145.985,125.307,153.868c77.083,7.887,145.985-48.229,153.874-125.306
			c7.885-77.083-48.23-145.986-125.312-153.869C240.201,44.512,171.298,100.627,163.412,177.706z"/>
		<radialGradient id="SVGID_6_" cx="328.1992" cy="78.3013" r="230.5503" gradientUnits="userSpaceOnUse">
			<stop  offset="0.3517" style="stop-color:#FFFFFF"/>
			<stop  offset="0.3633" style="stop-color:#FFFFFF"/>
			<stop  offset="0.4329" style="stop-color:#FFFFFF"/>
			<stop  offset="0.4992" style="stop-color:#E4E4E4;stop-opacity:0.955"/>
			<stop  offset="0.8564" style="stop-color:#545454;stop-opacity:0.7124"/>
			<stop  offset="1" style="stop-color:#2A2A2A;stop-opacity:0.6412"/>
			<stop  offset="1" style="stop-color:#000000;stop-opacity:0.57"/>
		</radialGradient>
		<path opacity="0.14" fill-rule="evenodd" clip-rule="evenodd" fill="url(#SVGID_6_)" d="M172.618,174.798
			c-7.399,72.302,45.244,136.941,117.55,144.342c72.303,7.395,136.941-45.245,144.336-117.547
			c7.4-72.31-45.238-136.945-117.545-144.345C244.652,49.849,180.017,102.491,172.618,174.798z"/>
		<linearGradient id="SVGID_7_" gradientUnits="userSpaceOnUse" x1="320.0977" y1="58.4507" x2="308.662" y2="275.7269">
			<stop  offset="0" style="stop-color:#FFFFFF"/>
			<stop  offset="1" style="stop-color:#FFFFFF"/>
		</linearGradient>
		<path opacity="0.27" fill-rule="evenodd" clip-rule="evenodd" fill="url(#SVGID_7_)" d="M263.881,79.494
			c-0.52,12.89,23.575,26.502,53.801,30.393c30.227,3.895,55.156-3.403,55.676-16.292c0.52-12.894-23.569-26.506-53.796-30.397
			C289.335,59.303,264.401,66.604,263.881,79.494z"/>
		<radialGradient id="SVGID_8_" cx="367.7051" cy="84.1919" r="97.1851" gradientUnits="userSpaceOnUse">
			<stop  offset="0" style="stop-color:#FFFFFF"/>
			<stop  offset="0.2" style="stop-color:#FFFFFF"/>
			<stop  offset="0.46" style="stop-color:#EDEDED"/>
			<stop  offset="0.58" style="stop-color:#DADADA"/>
			<stop  offset="0.8" style="stop-color:#706F6F"/>
			<stop  offset="1" style="stop-color:#1D1D1B"/>
		</radialGradient>
		<path opacity="0.47" fill-rule="evenodd" clip-rule="evenodd" fill="url(#SVGID_8_)" d="M382.82,158.7
			c21.609,8.78,43.656,9.852,55.908-2.445c-2.697-11.277-8.41-25.158-14.885-35.591c5.561,37.804-30.375,34.762-55.176,24.695
			c-7.514-3.05-14.855-8.078-22.182-14.323C358.604,143.345,370.482,153.692,382.82,158.7z"/>
		
			<radialGradient id="SVGID_9_" cx="211.9824" cy="195.2817" r="73.1615" fx="146.2737" fy="174.0051" gradientUnits="userSpaceOnUse">
			<stop  offset="0" style="stop-color:#FFFFFF"/>
			<stop  offset="0" style="stop-color:#FFFFFF"/>
			<stop  offset="0" style="stop-color:#EDEDED"/>
			<stop  offset="0" style="stop-color:#DADADA"/>
			<stop  offset="0.2928" style="stop-color:#706F6F"/>
			<stop  offset="0.7845" style="stop-color:#1D1D1B"/>
		</radialGradient>
		<path opacity="0.17" fill-rule="evenodd" clip-rule="evenodd" fill="url(#SVGID_9_)" d="M219.384,215.181
			c8.464-28.062,17.788-54.734,14.884-75.677c-3.204-23.087-15.306-40.659-32.062-45.139c-4.707,4.857-9.072,10.055-13.052,15.566
			c29.856-4.748,32.041,31.583,27.371,63.08c-3.111,21.003-11.484,40.302-14.294,61.285c-2.478,18.514-4.199,39.274,1.567,56.924
			c1.702,1.701,3.448,3.361,5.235,4.979C203.888,270.5,211.234,242.199,219.384,215.181z"/>
		
			<radialGradient id="SVGID_10_" cx="353.9844" cy="276.6401" r="72.4869" fx="317.9063" fy="213.7695" gradientUnits="userSpaceOnUse">
			<stop  offset="0" style="stop-color:#FFFFFF"/>
			<stop  offset="0" style="stop-color:#FFFFFF"/>
			<stop  offset="0" style="stop-color:#EDEDED"/>
			<stop  offset="0" style="stop-color:#DADADA"/>
			<stop  offset="0.2928" style="stop-color:#706F6F"/>
			<stop  offset="0.7845" style="stop-color:#1D1D1B"/>
		</radialGradient>
		<path opacity="0.17" fill-rule="evenodd" clip-rule="evenodd" fill="url(#SVGID_10_)" d="M287.123,281.781
			c-13.982,12.712-21.19,28.419-19.014,42.729c0.187,1.211,0.435,2.408,0.755,3.594c6.437,1.605,13.064,2.775,19.854,3.473
			c1.86,0.188,3.712,0.342,5.56,0.455c-16.991-11.047-11.326-29.336,0.476-38.523c15.362-11.959,41.581-16.361,67.913-22.733
			c0.283-0.073,0.572-0.138,0.855-0.211c28.273-6.887,56.543-16.163,71.541-39.627c1.83-2.697,3.455-5.458,4.873-8.26l0.307-1.429
			c-19.68,17.308-47.871,25.101-75.348,31.554c-0.268,0.065-0.535,0.126-0.805,0.191c-28.248,6.611-55.646,11.894-72.175,24.76
			C290.241,279.056,288.642,280.4,287.123,281.781L287.123,281.781z M436.912,227.834"/>
		<path fill-rule="evenodd" clip-rule="evenodd" d="M453.779,205.564c0.73-1.145,1.438-2.323,2.115-3.533
			c-31.688,56.504-126.217,46.328-163.98,75.722c-29.219,22.742-35.148,57.975,0,75.771c3.151,1.592,6.498,2.824,10.022,3.719
			c-0.329,0.543-0.771,0.744-0.885,0.738c-31.725,9.117-68.291-7.219-85.18-42.172c0.316,0.604,0.641,1.213,0.979,1.814
			c-30.929-55.539,23.923-131.22,17.417-178.12c-5.088-36.676-32.634-59.429-65.618-37.89c-3.184,2.079-6.116,4.565-8.812,7.419
			c0.24-0.979,0.203-1.016,0.304-1.405l-0.012,0.024c7.813-32.236,40.378-55.924,79.271-53.028l-0.568-0.024
			c62.629,2.347,100.474,86.43,143.987,104.1c39.939,16.22,81.951-2.112,63.57-49.305
			C473.312,135.235,474.246,175.488,453.779,205.564L453.779,205.564z M455.918,201.991
			C457.924,198.401,457.924,198.401,455.918,201.991L455.918,201.991z M216.875,317.673
			C218.743,321.011,218.743,321.011,216.875,317.673L216.875,317.673z M238.776,54.596"/>
		<path fill-rule="evenodd" clip-rule="evenodd" d="M244.08,59.213c3.448,0.154,6.819,0.56,10.116,1.186
			c3.16,0.601,6.254,1.405,9.288,2.388c2.948,0.958,5.84,2.088,8.678,3.367c14.721,6.632,28.033,17.336,40.521,29.341
			c-11.716-11.712-24.123-22.571-37.71-30.157c-2.449-1.365-4.938-2.627-7.469-3.769c-2.562-1.154-5.166-2.189-7.817-3.079
			c-6.473-2.189-13.223-3.549-20.285-3.87c-36.249-2.696-70.69,18.222-79.563,54.414C176.305,78.081,199.587,55.903,244.08,59.213
			L244.08,59.213z M212.006,282.755c0.004,5.895,0.491,11.701,1.58,17.383c1.336,6.969,3.582,13.75,6.965,20.264
			c3.833,7.928,8.679,14.896,14.246,20.83c-7.554-6.818-14.056-15.348-18.924-25.422c-3.277-6.311-5.487-12.869-6.835-19.611
			c-1.194-5.945-1.713-12.033-1.709-18.21c0.004-20.516,5.795-42.043,12.057-62.808c8.464-28.062,17.788-54.734,14.884-75.677
			c-1.888-13.601-6.863-25.288-14.059-33.512c9.714,8.118,16.467,21.722,18.738,38.101
			C244.007,180.581,211.945,234.475,212.006,282.755L212.006,282.755z M216.875,317.673
			C218.743,321.011,218.743,321.011,216.875,317.673L216.875,317.673z M440.316,162.939c13.664-8.22,20.029-24.577,10.994-48.334
			c-1.533-1.791-3.168-3.533-4.92-5.21c0.014,0.028,0.021,0.053,0.029,0.085c0.02,0.041,0.037,0.082,0.053,0.122
			c2.377,6.148,3.725,11.801,4.184,16.951c1.197,13.369-3.586,23.343-11.928,29.702c-1.986,1.51-4.168,2.818-6.523,3.915
			c-12.914,6.034-30.9,5.823-48.564-1.138c-0.277-0.109-0.549-0.219-0.82-0.333c-10.221-4.151-20.131-11.964-30.129-21.532
			c11.59,11.631,22.99,21.324,34.807,26.125c16.379,6.652,33.105,7.493,45.873,2.912
			C435.846,165.319,438.172,164.231,440.316,162.939L440.316,162.939z M238.776,54.596"/>
		<radialGradient id="SVGID_11_" cx="292.9897" cy="180.3521" r="241.7268" gradientUnits="userSpaceOnUse">
			<stop  offset="0" style="stop-color:#00ABD4"/>
			<stop  offset="0.6" style="stop-color:#365684"/>
			<stop  offset="1" style="stop-color:#000000"/>
		</radialGradient>
		<path fill-rule="evenodd" clip-rule="evenodd" fill="url(#SVGID_11_)" d="M174.267,93.748c9.048-4.231,19.01-6.043,29.008-3.371
			c2.546,0.678,5.011,1.632,7.358,2.834c4.76,2.437,8.935,5.824,12.476,9.815c11.728,9.954,17.864,25.589,19.931,40.5
			c1.909,13.75-1.178,28.988-4.646,42.283c-4.122,15.831-9.45,31.355-13.868,47.112c-4.496,16.037-8.411,33.102-8.386,49.832
			c0.003,5.564,0.459,11.137,1.506,16.602c1.279,6.682,3.436,13.102,6.571,19.137l0.057,0.105
			c3.472,7.188,7.968,13.848,13.418,19.68c13.828,12.428,32.074,19.33,50.36,17.885c-10.81-5.926-19.878-14.734-23.176-26.98
			c-0.362-1.332-0.646-2.686-0.853-4.047c-0.54-3.545-0.561-7.139-0.122-10.695c1.713-13.955,10.242-26.445,20.443-35.722
			c1.625-1.469,3.301-2.883,5.032-4.231c18.465-14.368,51.165-20.228,73.772-25.52l0.801-0.187
			c21.016-4.938,43.85-10.818,62.271-22.295c3.975-2.481,7.775-5.247,11.297-8.341c4.932-4.341,9.24-9.268,12.775-14.807
			l0.066-0.098c13.535-19.891,17.385-44.956,9.215-66.666c-0.338,11.854-5.234,22.75-17.131,29.905
			c-2.428,1.462-5.006,2.664-7.674,3.619c-15.559,5.575-33.805,3.123-48.826-2.977c-13.598-5.523-25.918-16.739-36.127-26.985
			c-0.73-0.703-1.438-1.385-2.16-2.092c-1.385-1.356-2.758-2.729-4.114-4.109c-7.436-7.553-14.575-15.408-21.832-23.132
			c-3.927-4.179-7.878-8.317-11.907-12.346c-11.573-11.123-24.605-21.896-39.338-28.536c-2.692-1.214-5.446-2.294-8.256-3.205
			c-2.879-0.934-5.812-1.693-8.781-2.258c-3.151-0.597-6.363-0.975-9.624-1.121C211.953,60.968,190.641,71.811,174.267,93.748z"/>
		<radialGradient id="SVGID_12_" cx="303.6768" cy="189.4185" r="172.4987" gradientUnits="userSpaceOnUse">
			<stop  offset="0" style="stop-color:#00ABD4"/>
			<stop  offset="0.7009" style="stop-color:#365684"/>
			<stop  offset="0.7426" style="stop-color:#33527E"/>
			<stop  offset="0.8004" style="stop-color:#2C466C"/>
			<stop  offset="0.8676" style="stop-color:#20334E"/>
			<stop  offset="0.9413" style="stop-color:#0F1926"/>
			<stop  offset="1" style="stop-color:#000000"/>
		</radialGradient>
		<path fill-rule="evenodd" clip-rule="evenodd" fill="url(#SVGID_12_)" d="M205.537,91.06c1.75,0.589,3.452,1.308,5.096,2.152
			c4.76,2.437,8.935,5.824,12.476,9.815c11.728,9.954,17.864,25.589,19.931,40.5c1.909,13.75-1.178,28.988-4.646,42.283
			c-4.122,15.831-9.45,31.355-13.868,47.112c-4.496,16.037-8.411,33.102-8.386,49.832c0.003,5.564,0.459,11.137,1.506,16.602
			c0.312,1.633,0.678,3.246,1.097,4.842c13.442,10.121,28.821,17.904,45.589,22.693c-0.114-0.584-0.219-1.17-0.309-1.756
			c-0.54-3.545-0.561-7.139-0.122-10.695c1.713-13.955,10.242-26.445,20.443-35.722c1.625-1.469,3.301-2.883,5.032-4.231
			c18.465-14.368,51.165-20.228,73.772-25.52l0.801-0.187c21.016-4.938,43.85-10.818,62.271-22.295
			c3.975-2.481,7.775-5.247,11.297-8.341c1.385-1.219,2.721-2.486,4.004-3.797c0.428-2.668,0.789-5.36,1.07-8.081
			c1.363-13.349,0.807-26.45-1.443-39.039c-2.047,1.128-4.182,2.083-6.379,2.871c-15.559,5.575-33.805,3.123-48.826-2.977
			c-13.598-5.523-25.918-16.739-36.127-26.985c-0.73-0.703-1.438-1.385-2.16-2.092c-1.385-1.356-2.758-2.729-4.114-4.109
			c-7.436-7.553-14.575-15.408-21.832-23.132c-3.927-4.179-7.878-8.317-11.907-12.346c-11.573-11.123-24.605-21.896-39.338-28.536
			c-2.692-1.214-5.446-2.294-8.256-3.205c-2.879-0.934-5.812-1.693-8.781-2.258c-2.266-0.431-4.564-0.747-6.887-0.942
			C231.316,70.227,217.435,79.583,205.537,91.06z"/>
		<radialGradient id="SVGID_13_" cx="179.5098" cy="118.6553" r="22.5604" gradientUnits="userSpaceOnUse">
			<stop  offset="0" style="stop-color:#00ABD4"/>
			<stop  offset="0.216" style="stop-color:#365684"/>
			<stop  offset="0.694" style="stop-color:#34355A"/>
			<stop  offset="0.9724" style="stop-color:#000000"/>
		</radialGradient>
		<path opacity="0.42" fill-rule="evenodd" clip-rule="evenodd" fill="url(#SVGID_13_)" d="M168.862,108.145
			c2.956-0.11,5.913-0.041,8.857,0.174c3.837,0.284,7.667,0.82,11.472,1.56c3.972-5.491,8.325-10.672,13.016-15.513
			c-9.864-2.631-21.337-0.731-33.556,7.249c-3.184,2.083-6.116,4.565-8.809,7.419C162.823,108.546,165.84,108.254,168.862,108.145z"
			/>
		
			<radialGradient id="SVGID_14_" cx="434.1846" cy="130.957" r="17.7445" fx="416.5266" fy="129.2077" gradientTransform="matrix(1 0 0 1.6443 0 -84.3717)" gradientUnits="userSpaceOnUse">
			<stop  offset="0" style="stop-color:#00ABD4"/>
			<stop  offset="0.3366" style="stop-color:#365684"/>
			<stop  offset="0.694" style="stop-color:#34355A"/>
			<stop  offset="0.9724" style="stop-color:#000000"/>
		</radialGradient>
		<path opacity="0.42" fill-rule="evenodd" clip-rule="evenodd" fill="url(#SVGID_14_)" d="M446.232,109.298
			c1.031,13.633-4.215,23.671-13.105,29.877c2.381,5.848,4.326,11.752,5.602,17.081c8.342-6.359,13.125-16.333,11.928-29.702
			c-0.459-5.15-1.807-10.803-4.184-16.951l-0.053-0.122C446.359,109.419,446.295,109.359,446.232,109.298z"/>
		
			<radialGradient id="SVGID_15_" cx="292.6655" cy="338.1841" r="15.4065" fx="304.4871" fy="328.3042" gradientUnits="userSpaceOnUse">
			<stop  offset="0" style="stop-color:#00ABD4"/>
			<stop  offset="0.3366" style="stop-color:#365684"/>
			<stop  offset="0.694" style="stop-color:#34355A"/>
			<stop  offset="0.9724" style="stop-color:#000000"/>
		</radialGradient>
		<path opacity="0.42" fill-rule="evenodd" clip-rule="evenodd" fill="url(#SVGID_15_)" d="M301.393,357.101
			c-10.794-7.158-16.41-16.336-17.682-26.129c-5.048-0.693-10.002-1.66-14.847-2.867c2.656,9.85,10.035,18.832,23.05,25.42
			C294.903,355.034,298.067,356.22,301.393,357.101z"/>
		<radialGradient id="SVGID_16_" cx="304.0151" cy="169.9077" r="146.0633" gradientUnits="userSpaceOnUse">
			<stop  offset="0" style="stop-color:#A1DAF8"/>
			<stop  offset="0.63" style="stop-color:#008BD2"/>
			<stop  offset="0.78" style="stop-color:#365684"/>
			<stop  offset="1" style="stop-color:#1C4F76"/>
		</radialGradient>
		<path opacity="0.35" fill-rule="evenodd" clip-rule="evenodd" fill="url(#SVGID_16_)" d="M246.541,63.518
			c-0.008-0.004-0.012-0.004-0.016-0.004c-0.902-0.077-1.811-0.134-2.721-0.175c-29.211-2.176-49.553,6.762-65.362,25.179
			c9.726-2.12,20.301-2.664,31.306-1.373c0.004,0,0.008,0,0.013,0.004c2.635,0.313,5.299,0.727,7.98,1.255
			c2.01,0.39,4.032,0.849,6.059,1.368c68.485,15.656,99.519,106.797,145.208,133.295c30.648,17.771,59.705,10.121,79.012-16.398
			c0.793-1.081,1.547-2.193,2.273-3.33l0.066-0.098c1.125-1.657,2.18-3.338,3.172-5.06c10.92-18.965,13.535-41.698,6.043-61.605
			c-0.338,11.854-5.234,22.75-17.131,29.905c-0.426,0.26-0.855,0.508-1.295,0.748c-2.047,1.128-4.182,2.083-6.379,2.871
			c-0.256,0.089-0.508,0.178-0.764,0.263c-15.389,5.231-33.285,2.762-48.062-3.24c-13.598-5.523-25.918-16.739-36.127-26.985
			l-2.16-2.092c-1.385-1.356-2.758-2.729-4.114-4.109c-7.436-7.553-14.575-15.408-21.832-23.132c-0.158-0.17-0.32-0.337-0.479-0.507
			c-3.771-4.008-7.561-7.972-11.428-11.838c-11.573-11.123-24.605-21.896-39.338-28.536c-0.114-0.053-0.231-0.11-0.35-0.159
			c-2.579-1.149-5.218-2.177-7.906-3.046c-1.815-0.588-3.651-1.108-5.507-1.551c-1.084-0.26-2.177-0.495-3.273-0.707
			C251.162,64.029,248.863,63.713,246.541,63.518z"/>
	</g>
</g>
<g>
	<radialGradient id="SVGID_17_" cx="272.4819" cy="416.6934" r="326.3288" gradientUnits="userSpaceOnUse">
		<stop  offset="0" style="stop-color:#FFFFFF"/>
		<stop  offset="0.43" style="stop-color:#FFFFFF"/>
		<stop  offset="1" style="stop-color:#DEE8E9"/>
	</radialGradient>
	<rect x="63.649" y="404.689" fill-rule="evenodd" clip-rule="evenodd" fill="url(#SVGID_17_)" width="474.621" height="240.079"/>
	<g>
		<path fill-rule="evenodd" clip-rule="evenodd" fill="#2E476E" d="M341.92,580.231l-1.295,7.547h-5.603l4.131-24.086h12.842
			c5.029,0,7.487,2.379,6.614,7.467l-0.287,1.68c-0.287,1.67-0.873,3.311-1.976,4.617c0.693,1.407,0.648,3.119,0.39,4.627
			l-0.977,5.695h-5.61l1.063-6.205c0.211-1.232-1.013-1.361-1.956-1.361L341.92,580.231L341.92,580.231z M250.486,564.661h-7.352
			l1.177-6.856h21.575l-1.176,6.856h-7.358l-3.965,23.117h-6.866L250.486,564.661L250.486,564.661z M264.074,584.415h7.731
			l0.392,3.363h6.021l-2.755-24.086h-7.983l-11.017,24.086h6.073L264.074,584.415L264.074,584.415z M286.739,578.533l-1.585,9.245
			h-5.603l4.131-24.086h5.603l-1.586,9.246h9.523l1.586-9.246h5.61l-4.131,24.086h-5.61l1.586-9.245H286.739L286.739,578.533z
			 M324.408,577.456c1.103-1.307,1.688-2.947,1.976-4.617l0.287-1.68c0.873-5.088-1.585-7.467-6.614-7.467h-12.842l-4.131,24.086
			h5.604l1.294-7.547l7.338-0.02c0.943,0,2.166,0.129,1.955,1.361l-1.063,6.205h5.609l0.978-5.695
			C325.056,580.575,325.102,578.863,324.408,577.456L324.408,577.456z M336.351,563.692h-5.603l-4.131,24.086h5.603L336.351,563.692
			L336.351,563.692z M343.797,569.288l-0.914,5.328h7.238c1.068,0,2.321-0.213,2.533-1.448l0.434-2.525
			c0.21-1.227-1.021-1.354-1.957-1.354H343.797L343.797,569.288z M271.18,578.819h-4.553l3.641-7.952L271.18,578.819L271.18,578.819
			z M311.858,569.288h7.333c0.937,0,2.168,0.128,1.958,1.354l-0.434,2.525c-0.212,1.235-1.465,1.448-2.533,1.448h-7.238
			L311.858,569.288z"/>
		<linearGradient id="SVGID_18_" gradientUnits="userSpaceOnUse" x1="300.9858" y1="592.3145" x2="300.9858" y2="559.4645">
			<stop  offset="0" style="stop-color:#365684"/>
			<stop  offset="0.5" style="stop-color:#00ABD4"/>
			<stop  offset="0.72" style="stop-color:#365684"/>
			<stop  offset="1" style="stop-color:#000000"/>
		</linearGradient>
		<path fill="url(#SVGID_18_)" d="M349.257,579.936l-7.57,0.021l-1.294,7.546h-5.042l4.036-23.532h12.608
			c5.043,0,7.159,2.381,6.342,7.143l-0.287,1.68c-0.333,1.936-1.013,3.479-2.035,4.625c0.628,1.148,0.78,2.689,0.449,4.619
			l-0.938,5.466h-5.05l1.009-5.882C351.679,580.494,350.936,579.936,349.257,579.936L349.257,579.936z M253.154,587.502h-6.305
			l3.965-23.116h-7.352l1.081-6.305h21.016l-1.082,6.305h-7.358L253.154,587.502L253.154,587.502z M263.897,584.138h8.154
			l0.392,3.364h5.466l-2.692-23.532h-7.56l-10.764,23.532h5.466L263.897,584.138L263.897,584.138z M271.489,579.096h-5.293
			l4.232-9.245L271.489,579.096L271.489,579.096z M286.507,578.257l-1.585,9.245h-5.042l4.035-23.532h5.043l-1.586,9.245h10.084
			l1.586-9.245h5.05l-4.037,23.532h-5.049l1.585-9.245H286.507L286.507,578.257z M317.318,579.936c1.679,0,2.422,0.559,2.229,1.685
			l-1.009,5.882h5.05l0.938-5.466c0.331-1.93,0.179-3.471-0.449-4.619c1.021-1.146,1.702-2.689,2.035-4.625l0.287-1.68
			c0.817-4.762-1.299-7.143-6.342-7.143h-12.608l-4.036,23.532h5.042l1.294-7.546L317.318,579.936L317.318,579.936z
			 M318.183,574.894h-7.566l1.009-5.883h7.566c1.679,0,2.422,0.561,2.23,1.679l-0.434,2.525
			C320.797,574.333,319.861,574.894,318.183,574.894L318.183,574.894z M336.022,563.97h-5.042l-4.036,23.532h5.043L336.022,563.97
			L336.022,563.97z M350.121,574.894c1.679,0,2.613-0.561,2.806-1.679l0.434-2.525c0.191-1.118-0.552-1.679-2.229-1.679h-7.567
			l-1.009,5.883H350.121z"/>
		<linearGradient id="SVGID_19_" gradientUnits="userSpaceOnUse" x1="300.3564" y1="588.8936" x2="301.6436" y2="543.8224">
			<stop  offset="0" style="stop-color:#FFFFFF"/>
			<stop  offset="0.0721" style="stop-color:#FCFEFF"/>
			<stop  offset="0.1237" style="stop-color:#F3FBFD"/>
			<stop  offset="0.169" style="stop-color:#E3F6FA"/>
			<stop  offset="0.2105" style="stop-color:#CDEEF7"/>
			<stop  offset="0.2496" style="stop-color:#B0E5F2"/>
			<stop  offset="0.2868" style="stop-color:#8DD9EC"/>
			<stop  offset="0.3226" style="stop-color:#63CCE5"/>
			<stop  offset="0.3563" style="stop-color:#34BCDD"/>
			<stop  offset="0.3879" style="stop-color:#00ABD4"/>
			<stop  offset="0.7939" style="stop-color:#365684"/>
		</linearGradient>
		<path opacity="0.45" fill="url(#SVGID_19_)" d="M337.414,575.47l1.973-11.5h12.608c5.043,0,7.159,2.381,6.342,7.143l-0.013,0.074
			c-1.631,0.512-3.401,1.001-5.301,1.463l0.337-1.96c0.191-1.118-0.552-1.679-2.229-1.679h-7.567l-0.979,5.707
			C340.917,574.985,339.191,575.235,337.414,575.47L337.414,575.47z M333.978,575.892c-1.671,0.191-3.384,0.367-5.132,0.528
			l2.135-12.45h5.042L333.978,575.892L333.978,575.892z M324.584,576.774c-6.142,0.458-12.678,0.725-19.464,0.77l2.328-13.574
			h12.608c5.043,0,7.159,2.381,6.342,7.143l-0.287,1.68C325.837,574.387,325.327,575.714,324.584,576.774L324.584,576.774z
			 M301.763,577.548c-6.992-0.029-13.726-0.295-20.045-0.764l2.197-12.814h5.043l-1.586,9.245h10.084l1.586-9.245h5.05
			L301.763,577.548L301.763,577.548z M276.634,576.357c-1.888-0.179-3.73-0.376-5.526-0.591l-0.679-5.916l-2.521,5.508
			c-1.758-0.238-3.462-0.494-5.108-0.766l4.858-10.623h7.56L276.634,576.357L276.634,576.357z M255.604,573.22l1.516-8.834h7.358
			l1.082-6.305h-21.016l-1.081,6.305h7.352l-1.256,7.318C251.421,572.239,253.44,572.745,255.604,573.22L255.604,573.22z
			 M318.183,574.894c1.679,0,2.614-0.561,2.806-1.679l0.434-2.525c0.191-1.118-0.552-1.679-2.23-1.679h-7.566l-1.009,5.883H318.183z
			"/>
		<linearGradient id="SVGID_20_" gradientUnits="userSpaceOnUse" x1="327.5605" y1="599.502" x2="327.5605" y2="581.6052">
			<stop  offset="0" style="stop-color:#878787"/>
			<stop  offset="1" style="stop-color:#EDEDED"/>
		</linearGradient>
		<path fill="url(#SVGID_20_)" d="M305.929,592.266c0.071-0.411-0.204-0.616-0.82-0.616h-2.774l-0.37,2.159h2.774
			c0.616,0,0.962-0.206,1.032-0.616L305.929,592.266L305.929,592.266z M352.16,598.433h-1.85l1.163-6.783h-2.157l0.317-1.85h6.167
			l-0.317,1.85h-2.16L352.16,598.433L352.16,598.433z M346.229,592.729c0.085-0.721-0.158-1.08-0.734-1.08h-1.851
			c-0.616,0-0.995,0.412-1.136,1.232l-0.423,2.467c-0.141,0.824,0.096,1.234,0.712,1.234h1.851c0.576,0,0.943-0.359,1.105-1.08
			h1.844c-0.473,1.953-1.663,2.93-3.574,2.93h-1.233c-2.057,0-2.89-1.131-2.502-3.391l0.317-1.85
			c0.388-2.262,1.609-3.393,3.666-3.393h1.232c1.911,0,2.768,0.976,2.569,2.93H346.229L346.229,592.729z M334.782,595.042h3.7
			l0.317-1.85h-3.7l0.265-1.543h4.317l0.316-1.85h-6.166l-1.48,8.633h6.167l0.316-1.85h-4.316L334.782,595.042L334.782,595.042z
			 M327.41,598.433c-2.057,0-2.891-1.131-2.503-3.391h1.851l-0.053,0.307c-0.142,0.824,0.096,1.234,0.712,1.234h1.233
			c0.617,0,0.997-0.41,1.139-1.234l0.951-5.549h1.85l-0.898,5.242c-0.389,2.26-1.611,3.391-3.665,3.391H327.41L327.41,598.433z
			 M322.013,589.8h-1.233c-2.057,0-3.277,1.131-3.666,3.393l-0.317,1.85c-0.387,2.26,0.446,3.391,2.503,3.391h1.233
			c2.054,0,3.277-1.131,3.664-3.391l0.317-1.85C324.902,590.931,324.066,589.8,322.013,589.8L322.013,589.8z M322.003,591.649
			c0.616,0,0.854,0.412,0.714,1.232l-0.423,2.467c-0.141,0.824-0.521,1.234-1.138,1.234h-1.85c-0.617,0-0.854-0.41-0.712-1.234
			l0.423-2.467c0.141-0.82,0.519-1.232,1.135-1.232H322.003L322.003,591.649z M312.868,595.659l-2.775,0.006l-0.475,2.768h-1.851
			l1.48-8.633h4.625c1.85,0,2.626,0.873,2.326,2.621l-0.105,0.617c-0.122,0.709-0.373,1.275-0.747,1.694
			c0.23,0.419,0.287,0.985,0.165,1.696l-0.344,2.004h-1.85l0.37-2.158C313.759,595.862,313.484,595.659,312.868,595.659
			L312.868,595.659z M313.186,593.809c0.616,0,0.961-0.206,1.031-0.616l0.159-0.927c0.07-0.411-0.204-0.616-0.82-0.616h-2.774
			l-0.37,2.159H313.186L313.186,593.809z M305.426,589.8c1.85,0,2.627,0.873,2.326,2.621l-0.105,0.617
			c-0.3,1.747-1.376,2.621-3.226,2.621l-2.775,0.006l-0.475,2.768h-1.851l1.481-8.633H305.426z"/>
		<linearGradient id="SVGID_21_" gradientUnits="userSpaceOnUse" x1="277.5566" y1="564.3154" x2="277.5566" y2="543.1749">
			<stop  offset="0" style="stop-color:#878787"/>
			<stop  offset="1" style="stop-color:#EDEDED"/>
		</linearGradient>
		<path fill="url(#SVGID_21_)" d="M269.697,561.054h-1.768l1.111-6.479h-2.061l0.303-1.768h5.891l-0.304,1.768h-2.062
			L269.697,561.054L269.697,561.054z M275.082,557.815h3.534l-0.556,3.238h1.768l1.414-8.246h-1.768l-0.556,3.24h-3.534l0.557-3.24
			h-1.768l-1.415,8.246h1.768L275.082,557.815L275.082,557.815z M283.15,557.815l-0.253,1.472h4.123l-0.303,1.767h-5.89l1.414-8.246
			h5.891l-0.304,1.768h-4.123l-0.253,1.473h3.534l-0.303,1.768H283.15z"/>
		<linearGradient id="SVGID_22_" gradientUnits="userSpaceOnUse" x1="300.9849" y1="537.3125" x2="300.9849" y2="581.5812">
			<stop  offset="0" style="stop-color:#00ABD4"/>
			<stop  offset="1" style="stop-color:#365684"/>
		</linearGradient>
		<path fill-rule="evenodd" clip-rule="evenodd" fill="url(#SVGID_22_)" d="M264.478,564.386l1.082-6.305h-21.016l-0.938,5.471
			l-0.143,0.834h1.585h5.767l-3.965,23.116h6.305l3.965-23.116H264.478L264.478,564.386z M342.865,568.183l-1.294,7.539h8.55
			c1.655,0,3.309-0.541,3.623-2.367l0.433-2.525c0.344-2.006-1.362-2.646-3.046-2.646H342.865L342.865,568.183z M350.121,574.894
			h-7.566l1.009-5.883h7.567c1.678,0,2.421,0.561,2.229,1.679l-0.434,2.525C352.734,574.333,351.8,574.894,350.121,574.894
			L350.121,574.894z M339.387,563.97h12.608c5.043,0,7.159,2.381,6.342,7.143l-0.287,1.68c-0.333,1.936-1.013,3.479-2.035,4.625
			c0.628,1.148,0.78,2.689,0.449,4.619l-0.938,5.466h-5.05l1.009-5.882c0.193-1.126-0.55-1.685-2.229-1.685l-7.57,0.021
			l-1.294,7.546h-5.042L339.387,563.97L339.387,563.97z M336.333,586.673l3.753-21.875h11.909c4.342,0,6.28,1.773,5.525,6.176
			l-0.288,1.678c-0.262,1.522-0.795,3.045-1.837,4.215l-0.389,0.438l0.281,0.512c0.654,1.196,0.581,2.781,0.358,4.081l-0.819,4.776
			h-3.367l0.842-4.912c0.345-2.011-1.354-2.654-3.046-2.654l-8.269,0.023l-1.294,7.543H336.333L336.333,586.673z M335.04,564.798
			l-3.752,21.875h-3.36l3.752-21.875H335.04L335.04,564.798z M330.98,563.97l-4.036,23.532h5.043l4.035-23.532H330.98L330.98,563.97
			z M320.988,573.215c-0.191,1.118-1.127,1.679-2.806,1.679h-7.566l1.009-5.883h7.566c1.679,0,2.422,0.561,2.23,1.679
			L320.988,573.215L320.988,573.215z M310.926,568.183l-1.293,7.539h8.55c1.655,0,3.31-0.541,3.623-2.367l0.433-2.525
			c0.345-2.006-1.362-2.646-3.047-2.646H310.926L310.926,568.183z M307.448,563.97h12.608c5.043,0,7.159,2.381,6.342,7.143
			l-0.287,1.68c-0.333,1.936-1.014,3.479-2.035,4.625c0.628,1.148,0.78,2.689,0.449,4.619l-0.938,5.466h-5.05l1.009-5.882
			c0.193-1.126-0.55-1.685-2.229-1.685l-7.57,0.021l-1.294,7.546h-5.042L307.448,563.97L307.448,563.97z M304.395,586.673h3.36
			l1.294-7.543l8.27-0.023c1.69,0,3.39,0.644,3.045,2.654l-0.842,4.912h3.367l0.819-4.776c0.223-1.3,0.296-2.885-0.358-4.081
			l-0.281-0.512l0.389-0.438c1.042-1.17,1.575-2.691,1.837-4.215l0.288-1.678c0.755-4.402-1.184-6.176-5.525-6.176h-11.91
			L304.395,586.673L304.395,586.673z M287.975,564.798l-1.586,9.246h11.766l1.587-9.246h3.367l-3.752,21.875h-3.367l1.585-9.245
			h-11.767l-1.585,9.245h-3.36l3.752-21.875H287.975L287.975,564.798z M283.915,563.97l-4.035,23.532h5.042l1.585-9.245h10.084
			l-1.585,9.245h5.049l4.037-23.532h-5.05l-1.586,9.245h-10.084l1.586-9.245H283.915L283.915,563.97z M272.419,579.925h-7.514
			l6.008-13.123L272.419,579.925L272.419,579.925z M270.429,569.851l-4.232,9.245h5.293L270.429,569.851L270.429,569.851z
			 M275.217,563.97l2.692,23.532h-5.466l-0.392-3.364h-8.154l-1.538,3.364h-5.466l10.764-23.532H275.217L275.217,563.97z
			 M268.189,564.798h6.288l2.502,21.875h-3.798l-0.392-3.363h-9.425l-1.538,3.363h-3.643L268.189,564.798L268.189,564.798z
			 M264.576,558.91l-0.798,4.646h-7.358l-3.965,23.116h-4.622l3.964-23.116h-7.352l0.798-4.646H264.576z"/>
		<g>
			<defs>
				<polyline id="SVGID_23_" points="280.677,552.544 280.677,548.388 322.43,548.388 322.43,552.544 				"/>
			</defs>
			<clipPath id="SVGID_24_">
				<use xlink:href="#SVGID_23_"  overflow="visible"/>
			</clipPath>
		</g>
		<g>
			
				<radialGradient id="SVGID_25_" cx="343.8652" cy="2076.9463" r="21.9673" fx="336.0462" fy="2080.717" gradientTransform="matrix(1.5618 0 0 0.1429 -233.1256 253.2414)" gradientUnits="userSpaceOnUse">
				<stop  offset="0.1636" style="stop-color:#4B4B4B"/>
				<stop  offset="0.3818" style="stop-color:#706F6F"/>
				<stop  offset="0.703" style="stop-color:#DADADA"/>
				<stop  offset="0.9091" style="stop-color:#FFFFFF"/>
			</radialGradient>
			<path opacity="0.39" fill-rule="evenodd" clip-rule="evenodd" fill="url(#SVGID_25_)" d="M275.228,549.786
				c-1.684,1.506,10.305,2.853,26.771,3.008c16.467,0.152,31.186-0.943,32.871-2.449c1.685-1.506-10.304-2.854-26.771-3.006
				C291.633,547.185,276.913,548.28,275.228,549.786z"/>
			<g>
				<radialGradient id="SVGID_26_" cx="324.96" cy="495.8662" r="9.1597" gradientUnits="userSpaceOnUse">
					<stop  offset="0" style="stop-color:#00ABD4"/>
					<stop  offset="0.46" style="stop-color:#365684"/>
					<stop  offset="1" style="stop-color:#34355A"/>
				</radialGradient>
				<path fill-rule="evenodd" clip-rule="evenodd" fill="url(#SVGID_26_)" d="M303.731,489.618c3.226-1.805,6.498-2.973,9.344-3.336
					c5.282-0.676,10.18-1.056,15.18,0.831c1.924,0.726,3.527,1.667,4.741,2.866c0.669,1.508,0.991,2.928,1.022,4.234l-0.004-0.128
					c0.288,3.214-0.862,5.612-2.868,7.142c-4.05,3.008-9.811,2.064-13.444,0.589C312.991,499.903,308.558,494.753,303.731,489.618z"
					/>
				
					<radialGradient id="SVGID_27_" cx="298.4639" cy="530.3516" r="21.4308" fx="294.9346" fy="524.33" gradientUnits="userSpaceOnUse">
					<stop  offset="0" style="stop-color:#00ABD4"/>
					<stop  offset="0.4548" style="stop-color:#365684"/>
					<stop  offset="0.8047" style="stop-color:#34355A"/>
					<stop  offset="1" style="stop-color:#000000"/>
				</radialGradient>
				<path fill-rule="evenodd" clip-rule="evenodd" fill="url(#SVGID_27_)" d="M313.199,524.397
					c-0.049,3.696-0.674,7.114-1.782,9.761c-2.057,4.912-4.177,9.344-8.31,12.729c-1.591,1.304-3.208,2.222-4.854,2.673
					c-1.64-0.175-3.03-0.604-4.179-1.231l0.113,0.061c-2.928-1.357-4.43-3.553-4.751-6.055c1.186,0.323,3.117-9.527,6.213-11.938
					C299.662,527.274,306.339,526.009,313.199,524.397z"/>
				
					<radialGradient id="SVGID_28_" cx="274.8262" cy="490.2021" r="18.1542" fx="272.5098" fy="494.3505" gradientTransform="matrix(1 0 0 0.8268 0 84.8967)" gradientUnits="userSpaceOnUse">
					<stop  offset="0" style="stop-color:#00ABD4"/>
					<stop  offset="0.3606" style="stop-color:#365684"/>
					<stop  offset="1" style="stop-color:#34355A"/>
				</radialGradient>
				<path fill-rule="evenodd" clip-rule="evenodd" fill="url(#SVGID_28_)" d="M281.979,497.2c0.698,5.035-1.544,11.45-3.579,18.197
					c-3.177-1.891-5.823-4.142-7.562-6.424c-3.226-4.237-6.004-8.289-6.869-13.562c-0.334-2.028-0.32-3.888,0.112-5.539
					c0.648-0.687,1.353-1.283,2.118-1.783C274.132,482.909,280.756,488.38,281.979,497.2z"/>
				<radialGradient id="SVGID_29_" cx="299.3486" cy="501.2373" r="48.5186" gradientUnits="userSpaceOnUse">
					<stop  offset="0" style="stop-color:#FFFFFF"/>
					<stop  offset="0.2" style="stop-color:#FFFFFF"/>
					<stop  offset="0.46" style="stop-color:#EDEDED"/>
					<stop  offset="0.58" style="stop-color:#DADADA"/>
					<stop  offset="0.8" style="stop-color:#706F6F"/>
					<stop  offset="1" style="stop-color:#1D1D1B"/>
				</radialGradient>
				<path fill-rule="evenodd" clip-rule="evenodd" fill="url(#SVGID_29_)" d="M264.94,506.386
					c-1.896,18.535,11.598,35.105,30.133,37.002c18.536,1.896,35.105-11.598,37.002-30.133
					c1.896-18.536-11.598-35.105-30.134-37.002C283.406,474.356,266.837,487.851,264.94,506.386z"/>
				<radialGradient id="SVGID_30_" cx="304.5674" cy="482.4824" r="55.4406" gradientUnits="userSpaceOnUse">
					<stop  offset="0.3517" style="stop-color:#FFFFFF"/>
					<stop  offset="0.3633" style="stop-color:#FFFFFF"/>
					<stop  offset="0.4329" style="stop-color:#FFFFFF"/>
					<stop  offset="0.4992" style="stop-color:#E4E4E4;stop-opacity:0.955"/>
					<stop  offset="0.8564" style="stop-color:#545454;stop-opacity:0.7124"/>
					<stop  offset="1" style="stop-color:#2A2A2A;stop-opacity:0.6412"/>
					<stop  offset="1" style="stop-color:#000000;stop-opacity:0.57"/>
				</radialGradient>
				<path opacity="0.14" fill-rule="evenodd" clip-rule="evenodd" fill="url(#SVGID_30_)" d="M267.154,505.687
					c-1.779,17.388,10.88,32.932,28.268,34.711c17.387,1.777,32.931-10.881,34.709-28.268c1.779-17.388-10.879-32.932-28.267-34.71
					C284.477,475.641,268.934,488.3,267.154,505.687z"/>
				<linearGradient id="SVGID_31_" gradientUnits="userSpaceOnUse" x1="302.6191" y1="477.71" x2="299.8693" y2="529.9577">
					<stop  offset="0" style="stop-color:#FFFFFF"/>
					<stop  offset="1" style="stop-color:#FFFFFF"/>
				</linearGradient>
				<path opacity="0.27" fill-rule="evenodd" clip-rule="evenodd" fill="url(#SVGID_31_)" d="M289.101,482.769
					c-0.125,3.101,5.669,6.373,12.938,7.31s13.264-0.819,13.389-3.919s-5.668-6.373-12.937-7.309
					C295.222,477.914,289.226,479.669,289.101,482.769z"/>
				<radialGradient id="SVGID_32_" cx="314.0674" cy="483.8994" r="23.37" gradientUnits="userSpaceOnUse">
					<stop  offset="0" style="stop-color:#FFFFFF"/>
					<stop  offset="0.2" style="stop-color:#FFFFFF"/>
					<stop  offset="0.46" style="stop-color:#EDEDED"/>
					<stop  offset="0.58" style="stop-color:#DADADA"/>
					<stop  offset="0.8" style="stop-color:#706F6F"/>
					<stop  offset="1" style="stop-color:#1D1D1B"/>
				</radialGradient>
				<path opacity="0.47" fill-rule="evenodd" clip-rule="evenodd" fill="url(#SVGID_32_)" d="M317.702,501.815
					c5.196,2.111,10.498,2.37,13.444-0.588c-0.648-2.711-2.022-6.049-3.579-8.558c1.337,9.091-7.305,8.359-13.269,5.938
					c-1.807-0.734-3.572-1.943-5.334-3.445C311.879,498.124,314.735,500.612,317.702,501.815z"/>
				
					<radialGradient id="SVGID_33_" cx="276.6201" cy="510.6133" r="17.5927" fx="260.8195" fy="505.497" gradientUnits="userSpaceOnUse">
					<stop  offset="0" style="stop-color:#FFFFFF"/>
					<stop  offset="0" style="stop-color:#FFFFFF"/>
					<stop  offset="0" style="stop-color:#EDEDED"/>
					<stop  offset="0" style="stop-color:#DADADA"/>
					<stop  offset="0.2928" style="stop-color:#706F6F"/>
					<stop  offset="0.7845" style="stop-color:#1D1D1B"/>
				</radialGradient>
				<path opacity="0.17" fill-rule="evenodd" clip-rule="evenodd" fill="url(#SVGID_33_)" d="M278.4,515.397
					c2.035-6.748,4.277-13.162,3.579-18.197c-0.771-5.553-3.681-9.777-7.71-10.854c-1.132,1.167-2.182,2.417-3.139,3.743
					c7.18-1.142,7.705,7.594,6.582,15.168c-0.748,5.051-2.762,9.691-3.438,14.738c-0.596,4.451-1.01,9.443,0.377,13.688
					c0.409,0.41,0.829,0.809,1.259,1.197C274.674,528.7,276.44,521.896,278.4,515.397z"/>
				
					<radialGradient id="SVGID_34_" cx="310.7676" cy="530.1777" r="17.4314" fx="302.0916" fy="515.0588" gradientUnits="userSpaceOnUse">
					<stop  offset="0" style="stop-color:#FFFFFF"/>
					<stop  offset="0" style="stop-color:#FFFFFF"/>
					<stop  offset="0" style="stop-color:#EDEDED"/>
					<stop  offset="0" style="stop-color:#DADADA"/>
					<stop  offset="0.2928" style="stop-color:#706F6F"/>
					<stop  offset="0.7845" style="stop-color:#1D1D1B"/>
				</radialGradient>
				<path opacity="0.17" fill-rule="evenodd" clip-rule="evenodd" fill="url(#SVGID_34_)" d="M294.689,531.413
					c-3.362,3.057-5.096,6.834-4.572,10.275c0.045,0.291,0.104,0.58,0.182,0.865c1.548,0.386,3.142,0.666,4.774,0.834
					c0.447,0.045,0.893,0.082,1.337,0.11c-4.086-2.657-2.724-7.056,0.114-9.265c3.694-2.875,9.999-3.934,16.331-5.467
					c0.068-0.017,0.138-0.033,0.206-0.05c6.799-1.656,13.597-3.888,17.203-9.53c0.44-0.648,0.831-1.312,1.172-1.986l0.074-0.344
					c-4.732,4.163-11.512,6.037-18.119,7.589c-0.064,0.015-0.129,0.03-0.193,0.046c-6.793,1.59-13.382,2.859-17.356,5.953
					C295.439,530.759,295.055,531.081,294.689,531.413L294.689,531.413z M330.71,518.441"/>
				<path fill-rule="evenodd" clip-rule="evenodd" d="M334.766,513.085c0.176-0.275,0.346-0.559,0.509-0.849
					c-7.62,13.587-30.352,11.14-39.433,18.208c-7.026,5.47-8.452,13.941,0,18.221c0.758,0.384,1.562,0.68,2.41,0.895
					c-0.079,0.131-0.186,0.18-0.213,0.179c-7.629,2.192-16.422-1.737-20.483-10.142c0.076,0.146,0.154,0.291,0.235,0.436
					c-7.438-13.355,5.753-31.554,4.188-42.832c-1.224-8.82-7.848-14.291-15.779-9.111c-0.766,0.5-1.471,1.098-2.119,1.784
					c0.058-0.235,0.049-0.245,0.073-0.338l-0.003,0.005c1.879-7.751,9.71-13.447,19.062-12.752l-0.137-0.006
					c15.061,0.564,24.161,20.785,34.625,25.034c9.604,3.9,19.707-0.509,15.287-11.856
					C339.463,496.173,339.688,505.854,334.766,513.085L334.766,513.085z M335.28,512.226
					C335.763,511.362,335.763,511.362,335.28,512.226L335.28,512.226z M277.797,540.044
					C278.246,540.847,278.246,540.847,277.797,540.044L277.797,540.044z M283.063,476.782"/>
				<path fill-rule="evenodd" clip-rule="evenodd" d="M284.339,477.892c0.829,0.038,1.64,0.135,2.433,0.285
					c0.76,0.145,1.504,0.338,2.233,0.574c0.709,0.23,1.404,0.502,2.087,0.811c3.54,1.594,6.741,4.169,9.744,7.055
					c-2.817-2.816-5.801-5.427-9.068-7.251c-0.589-0.329-1.188-0.632-1.796-0.907c-0.616-0.277-1.242-0.525-1.88-0.74
					c-1.557-0.525-3.18-0.853-4.878-0.93c-8.717-0.648-16.999,4.382-19.133,13.085C268.041,482.429,273.64,477.097,284.339,477.892
					L284.339,477.892z M276.626,531.648c0.001,1.417,0.118,2.813,0.38,4.179c0.321,1.676,0.861,3.307,1.675,4.873
					c0.922,1.906,2.087,3.582,3.426,5.01c-1.816-1.641-3.38-3.691-4.551-6.113c-0.788-1.518-1.319-3.096-1.644-4.717
					c-0.287-1.43-0.412-2.893-0.411-4.379c0.001-4.934,1.394-10.109,2.899-15.104c2.035-6.748,4.277-13.162,3.579-18.197
					c-0.454-3.271-1.65-6.082-3.381-8.059c2.336,1.952,3.96,5.224,4.506,9.162C284.321,507.077,276.611,520.038,276.626,531.648
					L276.626,531.648z M277.797,540.044C278.246,540.847,278.246,540.847,277.797,540.044L277.797,540.044z M331.528,502.836
					c3.286-1.978,4.816-5.911,2.644-11.624c-0.368-0.43-0.762-0.849-1.183-1.252c0.003,0.006,0.005,0.013,0.007,0.02
					c0.005,0.01,0.009,0.02,0.013,0.029c0.571,1.479,0.896,2.838,1.006,4.077c0.288,3.214-0.862,5.612-2.868,7.142
					c-0.478,0.363-1.002,0.678-1.568,0.942c-3.105,1.451-7.431,1.399-11.679-0.274c-0.066-0.025-0.132-0.053-0.197-0.08
					c-2.458-0.998-4.841-2.877-7.245-5.178c2.787,2.797,5.528,5.129,8.37,6.283c3.938,1.6,7.961,1.801,11.031,0.7
					C330.453,503.408,331.013,503.146,331.528,502.836L331.528,502.836z M283.063,476.782"/>
				<radialGradient id="SVGID_35_" cx="296.1001" cy="507.0225" r="58.1284" gradientUnits="userSpaceOnUse">
					<stop  offset="0" style="stop-color:#00ABD4"/>
					<stop  offset="0.6" style="stop-color:#365684"/>
					<stop  offset="1" style="stop-color:#000000"/>
				</radialGradient>
				<path fill-rule="evenodd" clip-rule="evenodd" fill="url(#SVGID_35_)" d="M267.551,486.196c2.176-1.018,4.571-1.453,6.976-0.811
					c0.612,0.164,1.205,0.393,1.77,0.682c1.145,0.586,2.148,1.401,3,2.361c2.82,2.393,4.296,6.152,4.793,9.738
					c0.459,3.307-0.283,6.971-1.117,10.169c-0.991,3.806-2.272,7.54-3.335,11.329c-1.081,3.855-2.022,7.96-2.017,11.982
					c0.001,1.338,0.11,2.678,0.362,3.993c0.308,1.606,0.826,3.149,1.58,4.602l0.014,0.025c0.835,1.729,1.916,3.329,3.227,4.731
					c3.325,2.988,7.713,4.648,12.11,4.301c-2.6-1.424-4.78-3.543-5.573-6.488c-0.087-0.32-0.155-0.645-0.205-0.973
					c-0.13-0.852-0.135-1.717-0.029-2.571c0.412-3.355,2.463-6.36,4.916-8.59c0.391-0.354,0.794-0.694,1.21-1.018
					c4.44-3.456,12.304-4.864,17.74-6.138l0.192-0.045c5.054-1.188,10.545-2.602,14.975-5.361c0.956-0.596,1.87-1.261,2.717-2.006
					c1.186-1.043,2.222-2.229,3.072-3.561l0.016-0.023c3.255-4.782,4.181-10.81,2.216-16.031c-0.081,2.852-1.259,5.472-4.119,7.192
					c-0.584,0.351-1.204,0.64-1.846,0.87c-3.741,1.34-8.129,0.75-11.741-0.717c-3.27-1.328-6.232-4.025-8.688-6.488
					c-0.176-0.169-0.346-0.334-0.52-0.504c-0.333-0.326-0.663-0.656-0.989-0.988c-1.788-1.816-3.505-3.704-5.25-5.562
					c-0.944-1.005-1.895-2-2.863-2.969c-2.783-2.675-5.917-5.267-9.46-6.862c-0.647-0.293-1.31-0.552-1.985-0.771
					c-0.692-0.225-1.397-0.406-2.111-0.543c-0.758-0.143-1.53-0.234-2.314-0.27C276.613,478.313,271.488,480.921,267.551,486.196z"
					/>
				<radialGradient id="SVGID_36_" cx="298.6704" cy="509.2021" r="41.4814" gradientUnits="userSpaceOnUse">
					<stop  offset="0" style="stop-color:#00ABD4"/>
					<stop  offset="0.7009" style="stop-color:#365684"/>
					<stop  offset="0.7426" style="stop-color:#33527E"/>
					<stop  offset="0.8004" style="stop-color:#2C466C"/>
					<stop  offset="0.8676" style="stop-color:#20334E"/>
					<stop  offset="0.9413" style="stop-color:#0F1926"/>
					<stop  offset="1" style="stop-color:#000000"/>
				</radialGradient>
				<path fill-rule="evenodd" clip-rule="evenodd" fill="url(#SVGID_36_)" d="M275.07,485.55c0.421,0.143,0.83,0.315,1.226,0.518
					c1.145,0.586,2.148,1.401,3,2.361c2.82,2.393,4.296,6.152,4.793,9.738c0.459,3.307-0.283,6.971-1.117,10.169
					c-0.991,3.806-2.272,7.54-3.335,11.329c-1.081,3.855-2.022,7.96-2.017,11.982c0.001,1.338,0.11,2.678,0.362,3.993
					c0.075,0.392,0.163,0.78,0.264,1.164c3.232,2.433,6.931,4.306,10.963,5.456c-0.027-0.14-0.053-0.281-0.074-0.422
					c-0.13-0.852-0.135-1.717-0.029-2.571c0.412-3.355,2.463-6.36,4.916-8.59c0.391-0.354,0.794-0.694,1.21-1.018
					c4.44-3.456,12.304-4.864,17.74-6.138l0.192-0.045c5.054-1.188,10.545-2.602,14.975-5.361c0.956-0.596,1.87-1.261,2.717-2.006
					c0.333-0.293,0.654-0.598,0.963-0.912c0.103-0.643,0.189-1.289,0.257-1.943c0.328-3.211,0.194-6.361-0.347-9.388
					c-0.492,0.271-1.006,0.501-1.534,0.69c-3.741,1.34-8.129,0.75-11.741-0.717c-3.27-1.328-6.232-4.025-8.688-6.488
					c-0.176-0.169-0.346-0.334-0.52-0.504c-0.333-0.326-0.663-0.656-0.989-0.988c-1.788-1.816-3.505-3.704-5.25-5.562
					c-0.944-1.005-1.895-2-2.863-2.969c-2.783-2.675-5.917-5.267-9.46-6.862c-0.647-0.293-1.31-0.552-1.985-0.771
					c-0.692-0.225-1.397-0.406-2.111-0.543c-0.545-0.104-1.098-0.179-1.656-0.227C281.27,480.54,277.932,482.79,275.07,485.55z"/>
				<radialGradient id="SVGID_37_" cx="268.8115" cy="492.1846" r="5.4248" gradientUnits="userSpaceOnUse">
					<stop  offset="0" style="stop-color:#00ABD4"/>
					<stop  offset="0.216" style="stop-color:#365684"/>
					<stop  offset="0.694" style="stop-color:#34355A"/>
					<stop  offset="0.9724" style="stop-color:#000000"/>
				</radialGradient>
				<path opacity="0.42" fill-rule="evenodd" clip-rule="evenodd" fill="url(#SVGID_37_)" d="M266.251,489.659
					c0.711-0.027,1.422-0.01,2.13,0.041c0.923,0.068,1.844,0.197,2.759,0.375c0.955-1.32,2.002-2.566,3.13-3.729
					c-2.372-0.634-5.131-0.177-8.069,1.743c-0.766,0.5-1.471,1.098-2.118,1.783C264.799,489.755,265.524,489.685,266.251,489.659z"
					/>
				
					<radialGradient id="SVGID_38_" cx="330.0547" cy="495.1445" r="4.2665" fx="325.809" fy="494.7239" gradientTransform="matrix(1 0 0 1.6443 0 -319.0068)" gradientUnits="userSpaceOnUse">
					<stop  offset="0" style="stop-color:#00ABD4"/>
					<stop  offset="0.3366" style="stop-color:#365684"/>
					<stop  offset="0.694" style="stop-color:#34355A"/>
					<stop  offset="0.9724" style="stop-color:#000000"/>
				</radialGradient>
				<path opacity="0.42" fill-rule="evenodd" clip-rule="evenodd" fill="url(#SVGID_38_)" d="M332.951,489.937
					c0.248,3.277-1.014,5.691-3.151,7.184c0.572,1.406,1.04,2.827,1.347,4.107c2.006-1.529,3.156-3.928,2.868-7.142
					c-0.11-1.239-0.435-2.599-1.006-4.077l-0.013-0.029C332.981,489.966,332.966,489.95,332.951,489.937z"/>
				
					<radialGradient id="SVGID_39_" cx="296.0225" cy="544.9775" r="3.7048" fx="298.8652" fy="542.6017" gradientUnits="userSpaceOnUse">
					<stop  offset="0" style="stop-color:#00ABD4"/>
					<stop  offset="0.3366" style="stop-color:#365684"/>
					<stop  offset="0.694" style="stop-color:#34355A"/>
					<stop  offset="0.9724" style="stop-color:#000000"/>
				</radialGradient>
				<path opacity="0.42" fill-rule="evenodd" clip-rule="evenodd" fill="url(#SVGID_39_)" d="M298.121,549.526
					c-2.596-1.723-3.946-3.929-4.252-6.283c-1.214-0.168-2.405-0.399-3.57-0.689c0.639,2.368,2.413,4.527,5.543,6.111
					C296.561,549.029,297.321,549.314,298.121,549.526z"/>
				<radialGradient id="SVGID_40_" cx="298.752" cy="504.5107" r="35.1245" gradientUnits="userSpaceOnUse">
					<stop  offset="0" style="stop-color:#A1DAF8"/>
					<stop  offset="0.63" style="stop-color:#008BD2"/>
					<stop  offset="0.78" style="stop-color:#365684"/>
					<stop  offset="1" style="stop-color:#1C4F76"/>
				</radialGradient>
				<path opacity="0.35" fill-rule="evenodd" clip-rule="evenodd" fill="url(#SVGID_40_)" d="M284.931,478.927
					c-0.002,0-0.003,0-0.004,0c-0.217-0.02-0.436-0.033-0.654-0.043c-7.024-0.523-11.916,1.627-15.718,6.056
					c2.339-0.511,4.882-0.642,7.528-0.33c0.001,0,0.002,0,0.003,0.001c0.634,0.074,1.274,0.174,1.919,0.301
					c0.483,0.095,0.97,0.205,1.457,0.33c16.469,3.765,23.932,25.682,34.919,32.054c7.37,4.273,14.357,2.433,19-3.943
					c0.19-0.261,0.372-0.528,0.547-0.802l0.016-0.023c0.271-0.397,0.524-0.803,0.763-1.216c2.626-4.562,3.255-10.027,1.453-14.815
					c-0.081,2.852-1.259,5.472-4.119,7.192c-0.103,0.062-0.206,0.122-0.312,0.18c-0.492,0.271-1.006,0.501-1.534,0.69
					c-0.062,0.021-0.122,0.043-0.184,0.062c-3.7,1.258-8.004,0.664-11.558-0.779c-3.27-1.328-6.232-4.025-8.688-6.488l-0.52-0.504
					c-0.333-0.326-0.663-0.656-0.989-0.988c-1.788-1.816-3.505-3.704-5.25-5.562c-0.038-0.041-0.077-0.081-0.115-0.122
					c-0.907-0.965-1.818-1.917-2.748-2.847c-2.783-2.675-5.917-5.267-9.46-6.862c-0.027-0.014-0.056-0.026-0.084-0.039
					c-0.62-0.275-1.255-0.522-1.901-0.732c-0.437-0.141-0.878-0.266-1.324-0.373c-0.261-0.062-0.523-0.119-0.787-0.17
					C286.042,479.05,285.489,478.975,284.931,478.927z"/>
			</g>
		</g>
	</g>
	<g>
		<radialGradient id="SVGID_41_" cx="253.7437" cy="685.1221" r="208.9677" gradientUnits="userSpaceOnUse">
			<stop  offset="0" style="stop-color:#FFFFFF"/>
			<stop  offset="0.17" style="stop-color:#00ABD4"/>
			<stop  offset="0.49" style="stop-color:#365684"/>
			<stop  offset="1" style="stop-color:#000000"/>
		</radialGradient>
		<rect x="63.649" y="641.999" fill-rule="evenodd" clip-rule="evenodd" fill="url(#SVGID_41_)" width="474.62" height="108.008"/>
		<g>
			<path fill-rule="evenodd" clip-rule="evenodd" fill="#FFFFFF" d="M376.365,709.118l-1.328,7.736h-5.743l4.235-24.689h13.164
				c5.155,0,7.675,2.436,6.78,7.654l-0.294,1.719c-0.295,1.715-0.896,3.395-2.025,4.736c0.711,1.441,0.664,3.197,0.399,4.742
				l-1.001,5.838h-5.752l1.091-6.359c0.216-1.264-1.038-1.398-2.006-1.398L376.365,709.118L376.365,709.118z M282.635,693.157
				h-7.536l1.207-7.029h22.117l-1.205,7.029h-7.543l-4.064,23.697h-7.039L282.635,693.157L282.635,693.157z M296.564,713.405h7.926
				l0.401,3.449h6.172l-2.823-24.689h-8.185l-11.293,24.689h6.226L296.564,713.405L296.564,713.405z M319.798,707.378l-1.624,9.477
				h-5.743l4.234-24.689h5.743l-1.626,9.477h9.763l1.626-9.477h5.751l-4.234,24.689h-5.751l1.625-9.477H319.798L319.798,707.378z
				 M358.413,706.274c1.131-1.342,1.731-3.021,2.025-4.736l0.295-1.719c0.895-5.219-1.625-7.654-6.781-7.654h-13.164l-4.234,24.689
				h5.744l1.326-7.736l7.522-0.021c0.967,0,2.221,0.135,2.004,1.398l-1.09,6.359h5.75l1.002-5.838
				C359.077,709.472,359.124,707.716,358.413,706.274L358.413,706.274z M370.655,692.165h-5.743l-4.234,24.689h5.743
				L370.655,692.165L370.655,692.165z M378.289,697.899l-0.938,5.463h7.421c1.095,0,2.379-0.219,2.597-1.484l0.444-2.59
				c0.215-1.258-1.047-1.389-2.006-1.389H378.289L378.289,697.899z M303.848,707.671h-4.667l3.732-8.152L303.848,707.671
				L303.848,707.671z M345.549,697.899h7.517c0.96,0,2.223,0.131,2.008,1.389l-0.445,2.59c-0.217,1.266-1.501,1.484-2.597,1.484
				h-7.42L345.549,697.899z"/>
			<linearGradient id="SVGID_42_" gradientUnits="userSpaceOnUse" x1="334.8271" y1="679.2256" x2="333.6818" y2="722.9806">
				<stop  offset="0" style="stop-color:#B6B6B6"/>
				<stop  offset="0.3874" style="stop-color:#FFFFFF"/>
				<stop  offset="0.7771" style="stop-color:#FFFFFF"/>
				<stop  offset="1" style="stop-color:#C3C3C3"/>
			</linearGradient>
			<path fill="url(#SVGID_42_)" d="M383.886,708.815l-7.76,0.021l-1.327,7.734h-5.168l4.138-24.125h12.925
				c5.17,0,7.339,2.441,6.501,7.324l-0.294,1.721c-0.342,1.984-1.038,3.564-2.087,4.742c0.644,1.176,0.8,2.758,0.461,4.734
				l-0.961,5.604h-5.177l1.034-6.029C386.369,709.388,385.607,708.815,383.886,708.815L383.886,708.815z M285.37,716.571h-6.463
				l4.064-23.697h-7.536l1.108-6.463h21.544l-1.109,6.463h-7.543L285.37,716.571L285.37,716.571z M296.383,713.124h8.359
				l0.402,3.447h5.603l-2.76-24.125h-7.75l-11.034,24.125h5.603L296.383,713.124L296.383,713.124z M304.166,707.954h-5.426
				l4.339-9.479L304.166,707.954L304.166,707.954z M319.56,707.095l-1.624,9.477h-5.169l4.137-24.125h5.17l-1.626,9.479h10.337
				l1.626-9.479h5.177l-4.139,24.125h-5.176l1.625-9.477H319.56L319.56,707.095z M351.146,708.815c1.721,0,2.482,0.572,2.284,1.727
				l-1.034,6.029h5.177l0.961-5.604c0.34-1.977,0.184-3.559-0.46-4.734c1.047-1.178,1.745-2.758,2.086-4.742l0.295-1.721
				c0.838-4.883-1.332-7.324-6.502-7.324h-12.925l-4.138,24.125h5.169l1.326-7.734L351.146,708.815L351.146,708.815z
				 M352.031,703.646h-7.756l1.034-6.029h7.756c1.721,0,2.482,0.572,2.287,1.721l-0.445,2.588
				C354.711,703.073,353.752,703.646,352.031,703.646L352.031,703.646z M370.319,692.446h-5.169l-4.137,24.125h5.169
				L370.319,692.446L370.319,692.446z M384.772,703.646c1.721,0,2.679-0.572,2.876-1.721l0.444-2.588
				c0.196-1.148-0.565-1.721-2.285-1.721h-7.758l-1.034,6.029H384.772z"/>
			<linearGradient id="SVGID_43_" gradientUnits="userSpaceOnUse" x1="361.6445" y1="728.873" x2="361.6445" y2="710.5228">
				<stop  offset="0" style="stop-color:#EDEDED"/>
				<stop  offset="1" style="stop-color:#FFFFFF"/>
			</linearGradient>
			<path fill="url(#SVGID_43_)" d="M339.47,721.454c0.073-0.42-0.209-0.631-0.841-0.631h-2.844l-0.38,2.213h2.844
				c0.632,0,0.986-0.213,1.059-0.633L339.47,721.454L339.47,721.454z M386.862,727.776h-1.896l1.192-6.953h-2.211l0.325-1.898h6.322
				l-0.325,1.898h-2.215L386.862,727.776L386.862,727.776z M380.782,721.929c0.087-0.736-0.163-1.105-0.753-1.105h-1.897
				c-0.632,0-1.021,0.424-1.164,1.264l-0.434,2.529c-0.145,0.842,0.098,1.264,0.729,1.264h1.897c0.591,0,0.967-0.369,1.133-1.105
				h1.891c-0.484,2.002-1.705,3.002-3.664,3.002h-1.265c-2.108,0-2.962-1.158-2.564-3.475l0.325-1.898
				c0.397-2.316,1.649-3.479,3.758-3.479h1.264c1.959,0,2.837,1.002,2.634,3.004H380.782L380.782,721.929z M369.048,724.302h3.793
				l0.325-1.898h-3.793l0.271-1.58h4.426l0.324-1.898h-6.32l-1.518,8.852h6.321l0.324-1.896h-4.425L369.048,724.302L369.048,724.302
				z M361.491,727.776c-2.108,0-2.964-1.158-2.566-3.475h1.897l-0.055,0.314c-0.145,0.842,0.099,1.264,0.73,1.264h1.264
				c0.633,0,1.022-0.422,1.168-1.264l0.975-5.691h1.896l-0.921,5.377c-0.398,2.316-1.652,3.475-3.758,3.475H361.491L361.491,727.776
				z M355.958,718.925h-1.265c-2.108,0-3.359,1.162-3.758,3.479l-0.325,1.898c-0.396,2.316,0.457,3.475,2.565,3.475h1.265
				c2.104,0,3.359-1.158,3.756-3.475l0.325-1.898C358.92,720.087,358.063,718.925,355.958,718.925L355.958,718.925z
				 M355.947,720.823c0.632,0,0.876,0.424,0.732,1.264l-0.434,2.529c-0.145,0.842-0.534,1.264-1.166,1.264h-1.896
				c-0.633,0-0.875-0.422-0.729-1.264l0.434-2.529c0.144-0.84,0.531-1.264,1.163-1.264H355.947L355.947,720.823z M346.583,724.933
				l-2.845,0.008l-0.486,2.836h-1.897l1.518-8.852h4.741c1.896,0,2.692,0.896,2.385,2.689l-0.108,0.633
				c-0.125,0.727-0.382,1.309-0.766,1.736c0.236,0.43,0.295,1.01,0.17,1.74l-0.353,2.053h-1.896l0.38-2.211
				C347.496,725.142,347.215,724.933,346.583,724.933L346.583,724.933z M346.909,723.036c0.632,0,0.984-0.213,1.057-0.633
				l0.163-0.949c0.072-0.42-0.209-0.631-0.841-0.631h-2.844l-0.38,2.213H346.909L346.909,723.036z M338.954,718.925
				c1.896,0,2.693,0.896,2.385,2.689l-0.108,0.633c-0.308,1.791-1.41,2.686-3.307,2.686l-2.845,0.008l-0.486,2.836h-1.897
				l1.519-8.852H338.954z"/>
			<linearGradient id="SVGID_44_" gradientUnits="userSpaceOnUse" x1="310.3848" y1="692.8037" x2="310.3848" y2="671.1273">
				<stop  offset="0" style="stop-color:#EDEDED"/>
				<stop  offset="1" style="stop-color:#FFFFFF"/>
			</linearGradient>
			<path fill="url(#SVGID_44_)" d="M302.328,689.46h-1.812l1.14-6.645h-2.112l0.31-1.811h6.039l-0.311,1.811h-2.114L302.328,689.46
				L302.328,689.46z M307.848,686.14h3.624l-0.57,3.32h1.812l1.449-8.455h-1.812l-0.57,3.322h-3.623l0.571-3.322h-1.812
				l-1.451,8.455h1.812L307.848,686.14L307.848,686.14z M316.119,686.14l-0.259,1.508h4.227l-0.311,1.812h-6.038l1.45-8.455h6.038
				l-0.311,1.811h-4.228l-0.259,1.512h3.623l-0.311,1.812H316.119z"/>
			<linearGradient id="SVGID_45_" gradientUnits="userSpaceOnUse" x1="334.4023" y1="695.7461" x2="334.4023" y2="708.2581">
				<stop  offset="0" style="stop-color:#DADADA"/>
				<stop  offset="0.34" style="stop-color:#FFFFFF"/>
				<stop  offset="0.55" style="stop-color:#EDEDED"/>
				<stop  offset="1" style="stop-color:#DADADA"/>
			</linearGradient>
			<path fill-rule="evenodd" clip-rule="evenodd" fill="url(#SVGID_45_)" d="M296.978,692.874l1.109-6.463h-21.544l-0.962,5.609
				l-0.146,0.854h1.625h5.912l-4.064,23.697h6.463l4.064-23.697H296.978L296.978,692.874z M377.334,696.765l-1.326,7.73h8.765
				c1.696,0,3.392-0.555,3.714-2.426l0.443-2.588c0.353-2.059-1.396-2.717-3.122-2.717H377.334L377.334,696.765z M384.772,703.646
				h-7.757l1.034-6.029h7.758c1.72,0,2.481,0.572,2.285,1.721l-0.444,2.588C387.451,703.073,386.493,703.646,384.772,703.646
				L384.772,703.646z M373.769,692.446h12.925c5.17,0,7.339,2.441,6.501,7.324l-0.294,1.721c-0.342,1.984-1.038,3.564-2.087,4.742
				c0.644,1.176,0.8,2.758,0.461,4.734l-0.961,5.604h-5.177l1.034-6.029c0.198-1.154-0.563-1.727-2.285-1.727l-7.76,0.021
				l-1.327,7.734h-5.168L373.769,692.446L373.769,692.446z M370.638,715.722l3.848-22.426h12.208c4.45,0,6.438,1.818,5.664,6.33
				l-0.295,1.721c-0.269,1.562-0.815,3.123-1.884,4.322l-0.398,0.447l0.289,0.525c0.67,1.227,0.595,2.852,0.367,4.184l-0.84,4.896
				h-3.452l0.863-5.035c0.354-2.062-1.389-2.723-3.123-2.723l-8.476,0.025l-1.327,7.732H370.638L370.638,715.722z M369.312,693.296
				l-3.847,22.426h-3.444l3.846-22.426H369.312L369.312,693.296z M365.15,692.446l-4.137,24.125h5.169l4.137-24.125H365.15
				L365.15,692.446z M354.907,701.925c-0.196,1.148-1.155,1.721-2.876,1.721h-7.756l1.034-6.029h7.756
				c1.721,0,2.482,0.572,2.287,1.721L354.907,701.925L354.907,701.925z M344.593,696.765l-1.326,7.73h8.765
				c1.697,0,3.393-0.555,3.714-2.426l0.443-2.588c0.354-2.059-1.396-2.717-3.123-2.717H344.593L344.593,696.765z M341.027,692.446
				h12.925c5.17,0,7.34,2.441,6.502,7.324l-0.295,1.721c-0.341,1.984-1.039,3.564-2.086,4.742c0.644,1.176,0.8,2.758,0.46,4.734
				l-0.961,5.604h-5.177l1.034-6.029c0.198-1.154-0.563-1.727-2.284-1.727l-7.761,0.021l-1.326,7.734h-5.169L341.027,692.446
				L341.027,692.446z M337.897,715.722h3.444l1.326-7.732l8.478-0.025c1.732,0,3.475,0.66,3.121,2.723l-0.862,5.035h3.451
				l0.84-4.896c0.229-1.332,0.304-2.957-0.367-4.184l-0.288-0.525l0.398-0.447c1.068-1.199,1.614-2.76,1.883-4.322l0.295-1.721
				c0.774-4.512-1.213-6.33-5.664-6.33h-12.209L337.897,715.722L337.897,715.722z M321.064,693.296l-1.626,9.479H331.5l1.627-9.479
				h3.452l-3.847,22.426h-3.452l1.625-9.479h-12.062l-1.625,9.479h-3.445l3.847-22.426H321.064L321.064,693.296z M316.903,692.446
				l-4.137,24.125h5.169l1.624-9.477h10.338l-1.625,9.477h5.176l4.139-24.125h-5.177l-1.626,9.479h-10.337l1.626-9.479H316.903
				L316.903,692.446z M305.118,708.804h-7.702l6.159-13.453L305.118,708.804L305.118,708.804z M303.078,698.476l-4.339,9.479h5.426
				L303.078,698.476L303.078,698.476z M307.986,692.446l2.76,24.125h-5.603l-0.402-3.447h-8.359l-1.577,3.447h-5.603l11.034-24.125
				H307.986L307.986,692.446z M300.783,693.296h6.446l2.564,22.426H305.9l-0.402-3.449h-9.661l-1.577,3.449h-3.734L300.783,693.296
				L300.783,693.296z M297.079,687.261l-0.818,4.764h-7.543l-4.064,23.697h-4.738l4.063-23.697h-7.537l0.818-4.764H297.079z"/>
		</g>
		
			<radialGradient id="SVGID_46_" cx="305.6836" cy="3294.5801" r="16.5915" fx="299.778" fy="3297.4282" gradientTransform="matrix(1.74 -0.013 0.0011 0.1486 -286.9752 245.4716)" gradientUnits="userSpaceOnUse">
			<stop  offset="0.0121" style="stop-color:#000000"/>
			<stop  offset="0.4545" style="stop-color:#365684"/>
			<stop  offset="0.5267" style="stop-color:#325C8A"/>
			<stop  offset="0.6267" style="stop-color:#276E9B"/>
			<stop  offset="0.7425" style="stop-color:#148CB6"/>
			<stop  offset="0.7879" style="stop-color:#0C99C3"/>
		</radialGradient>
		<path opacity="0.34" fill-rule="evenodd" clip-rule="evenodd" fill="url(#SVGID_46_)" d="M224.388,731.056
			c-1.408,1.195,8.688,2.176,22.545,2.193c13.859,0.018,26.238-0.936,27.648-2.129c1.408-1.195-8.688-2.178-22.546-2.193
			C238.178,728.907,225.797,729.862,224.388,731.056z"/>
		<g>
			<radialGradient id="SVGID_47_" cx="261.9419" cy="690.0645" r="6.9186" gradientUnits="userSpaceOnUse">
				<stop  offset="0" style="stop-color:#00ABD4"/>
				<stop  offset="0.46" style="stop-color:#365684"/>
				<stop  offset="1" style="stop-color:#34355A"/>
			</radialGradient>
			<path fill-rule="evenodd" clip-rule="evenodd" fill="url(#SVGID_47_)" d="M245.906,685.345c2.437-1.365,4.909-2.248,7.058-2.521
				c3.99-0.51,7.69-0.797,11.466,0.627c1.453,0.549,2.665,1.26,3.581,2.166c0.505,1.139,0.749,2.211,0.772,3.199l-0.003-0.098
				c0.218,2.428-0.651,4.24-2.167,5.396c-3.059,2.271-7.411,1.559-10.155,0.443C252.901,693.112,249.552,689.222,245.906,685.345z"
				/>
			
				<radialGradient id="SVGID_48_" cx="241.9272" cy="716.1123" r="16.1882" fx="239.2613" fy="711.5638" gradientUnits="userSpaceOnUse">
				<stop  offset="0" style="stop-color:#00ABD4"/>
				<stop  offset="0.4548" style="stop-color:#365684"/>
				<stop  offset="0.8047" style="stop-color:#34355A"/>
				<stop  offset="1" style="stop-color:#000000"/>
			</radialGradient>
			<path fill-rule="evenodd" clip-rule="evenodd" fill="url(#SVGID_48_)" d="M253.058,711.614c-0.037,2.793-0.509,5.373-1.346,7.373
				c-1.553,3.711-3.155,7.059-6.277,9.617c-1.202,0.982-2.423,1.676-3.667,2.018c-1.238-0.133-2.289-0.455-3.156-0.93l0.085,0.045
				c-2.211-1.025-3.346-2.684-3.589-4.572c0.896,0.244,2.355-7.197,4.693-9.018C242.833,713.788,247.876,712.833,253.058,711.614z"
				/>
			
				<radialGradient id="SVGID_49_" cx="224.0723" cy="685.7832" r="13.7133" fx="222.3225" fy="688.9167" gradientTransform="matrix(1 0 0 0.8268 0 118.7688)" gradientUnits="userSpaceOnUse">
				<stop  offset="0" style="stop-color:#00ABD4"/>
				<stop  offset="0.3606" style="stop-color:#365684"/>
				<stop  offset="1" style="stop-color:#34355A"/>
			</radialGradient>
			<path fill-rule="evenodd" clip-rule="evenodd" fill="url(#SVGID_49_)" d="M229.476,691.069c0.527,3.805-1.167,8.65-2.704,13.746
				c-2.399-1.428-4.398-3.129-5.712-4.852c-2.437-3.201-4.535-6.262-5.188-10.244c-0.252-1.533-0.242-2.938,0.085-4.184
				c0.49-0.52,1.021-0.971,1.6-1.348C223.547,680.276,228.551,684.407,229.476,691.069z"/>
			<radialGradient id="SVGID_50_" cx="242.5957" cy="694.1201" r="36.649" gradientUnits="userSpaceOnUse">
				<stop  offset="0" style="stop-color:#FFFFFF"/>
				<stop  offset="0.2" style="stop-color:#FFFFFF"/>
				<stop  offset="0.46" style="stop-color:#EDEDED"/>
				<stop  offset="0.58" style="stop-color:#DADADA"/>
				<stop  offset="0.8" style="stop-color:#706F6F"/>
				<stop  offset="1" style="stop-color:#1D1D1B"/>
			</radialGradient>
			<circle fill-rule="evenodd" clip-rule="evenodd" fill="url(#SVGID_50_)" cx="241.96" cy="700.604" r="25.488"/>
			<radialGradient id="SVGID_51_" cx="246.5381" cy="679.9541" r="41.8775" gradientUnits="userSpaceOnUse">
				<stop  offset="0.3517" style="stop-color:#FFFFFF"/>
				<stop  offset="0.3633" style="stop-color:#FFFFFF"/>
				<stop  offset="0.4329" style="stop-color:#FFFFFF"/>
				<stop  offset="0.4992" style="stop-color:#E4E4E4;stop-opacity:0.955"/>
				<stop  offset="0.8564" style="stop-color:#545454;stop-opacity:0.7124"/>
				<stop  offset="1" style="stop-color:#2A2A2A;stop-opacity:0.6412"/>
				<stop  offset="1" style="stop-color:#000000;stop-opacity:0.57"/>
			</radialGradient>
			<path opacity="0.14" fill-rule="evenodd" clip-rule="evenodd" fill="url(#SVGID_51_)" d="M218.277,697.481
				c-1.344,13.133,8.218,24.875,21.353,26.219c13.133,1.344,24.875-8.219,26.218-21.352c1.344-13.135-8.218-24.877-21.352-26.219
				C231.362,674.784,219.621,684.347,218.277,697.481z"/>
			<linearGradient id="SVGID_52_" gradientUnits="userSpaceOnUse" x1="245.0664" y1="676.3486" x2="242.9894" y2="715.8121">
				<stop  offset="0" style="stop-color:#FFFFFF"/>
				<stop  offset="1" style="stop-color:#FFFFFF"/>
			</linearGradient>
			<path opacity="0.27" fill-rule="evenodd" clip-rule="evenodd" fill="url(#SVGID_52_)" d="M234.854,680.169
				c-0.095,2.342,4.282,4.814,9.773,5.521c5.49,0.707,10.019-0.619,10.113-2.959c0.094-2.344-4.281-4.814-9.772-5.521
				C239.479,676.503,234.949,677.829,234.854,680.169z"/>
			<radialGradient id="SVGID_53_" cx="253.7139" cy="681.0215" r="17.6543" gradientUnits="userSpaceOnUse">
				<stop  offset="0" style="stop-color:#FFFFFF"/>
				<stop  offset="0.2" style="stop-color:#FFFFFF"/>
				<stop  offset="0.46" style="stop-color:#EDEDED"/>
				<stop  offset="0.58" style="stop-color:#DADADA"/>
				<stop  offset="0.8" style="stop-color:#706F6F"/>
				<stop  offset="1" style="stop-color:#1D1D1B"/>
			</radialGradient>
			<path opacity="0.47" fill-rule="evenodd" clip-rule="evenodd" fill="url(#SVGID_53_)" d="M256.459,694.558
				c3.925,1.594,7.93,1.789,10.155-0.443c-0.49-2.051-1.527-4.57-2.703-6.467c1.009,6.869-5.518,6.316-10.023,4.486
				c-1.365-0.553-2.698-1.467-4.029-2.602C252.061,691.769,254.218,693.647,256.459,694.558z"/>
			
				<radialGradient id="SVGID_54_" cx="225.4272" cy="701.2021" r="13.2902" fx="213.4909" fy="697.3372" gradientUnits="userSpaceOnUse">
				<stop  offset="0" style="stop-color:#FFFFFF"/>
				<stop  offset="0" style="stop-color:#FFFFFF"/>
				<stop  offset="0" style="stop-color:#EDEDED"/>
				<stop  offset="0" style="stop-color:#DADADA"/>
				<stop  offset="0.2928" style="stop-color:#706F6F"/>
				<stop  offset="0.7845" style="stop-color:#1D1D1B"/>
			</radialGradient>
			<path opacity="0.17" fill-rule="evenodd" clip-rule="evenodd" fill="url(#SVGID_54_)" d="M226.772,704.815
				c1.537-5.096,3.231-9.941,2.704-13.746c-0.582-4.193-2.78-7.385-5.824-8.199c-0.854,0.883-1.648,1.828-2.371,2.828
				c5.423-0.863,5.82,5.738,4.972,11.459c-0.565,3.814-2.086,7.32-2.597,11.131c-0.45,3.365-0.763,7.135,0.285,10.342
				c0.309,0.309,0.626,0.609,0.951,0.904C223.957,714.866,225.292,709.726,226.772,704.815z"/>
			
				<radialGradient id="SVGID_55_" cx="251.2217" cy="715.9805" r="13.1669" fx="244.6683" fy="704.5603" gradientUnits="userSpaceOnUse">
				<stop  offset="0" style="stop-color:#FFFFFF"/>
				<stop  offset="0" style="stop-color:#FFFFFF"/>
				<stop  offset="0" style="stop-color:#EDEDED"/>
				<stop  offset="0" style="stop-color:#DADADA"/>
				<stop  offset="0.2928" style="stop-color:#706F6F"/>
				<stop  offset="0.7845" style="stop-color:#1D1D1B"/>
			</radialGradient>
			<path opacity="0.17" fill-rule="evenodd" clip-rule="evenodd" fill="url(#SVGID_55_)" d="M239.076,716.915
				c-2.54,2.309-3.849,5.162-3.454,7.762c0.034,0.219,0.079,0.438,0.137,0.652c1.169,0.291,2.373,0.504,3.606,0.631
				c0.338,0.033,0.674,0.062,1.01,0.082c-3.086-2.006-2.057-5.328,0.086-6.998c2.791-2.172,7.553-2.971,12.336-4.129
				c0.052-0.014,0.104-0.025,0.156-0.037c5.136-1.252,10.271-2.938,12.995-7.199c0.333-0.488,0.627-0.992,0.885-1.5l0.056-0.26
				c-3.575,3.145-8.696,4.561-13.687,5.732c-0.048,0.01-0.097,0.021-0.146,0.033c-5.131,1.201-10.108,2.162-13.111,4.498
				C239.643,716.419,239.352,716.663,239.076,716.915L239.076,716.915z M266.285,707.116"/>
			<path fill-rule="evenodd" clip-rule="evenodd" d="M269.349,703.069c0.132-0.207,0.26-0.422,0.384-0.641
				c-5.756,10.264-22.927,8.414-29.787,13.754c-5.307,4.131-6.384,10.531,0,13.764c0.573,0.289,1.181,0.514,1.821,0.676
				c-0.06,0.098-0.14,0.135-0.161,0.135c-5.763,1.654-12.405-1.312-15.473-7.66c0.058,0.109,0.117,0.219,0.178,0.328
				c-5.618-10.088,4.346-23.836,3.164-32.355c-0.924-6.66-5.928-10.793-11.919-6.881c-0.578,0.377-1.111,0.828-1.601,1.348
				c0.043-0.178,0.037-0.186,0.055-0.256l-0.002,0.004c1.419-5.855,7.334-10.158,14.4-9.633l-0.104-0.004
				c11.376,0.426,18.25,15.701,26.155,18.91c7.255,2.945,14.886-0.385,11.547-8.955
				C272.897,690.294,273.066,697.606,269.349,703.069L269.349,703.069z M269.738,702.421
				C270.103,701.769,270.103,701.769,269.738,702.421L269.738,702.421z M226.316,723.435
				C226.655,724.04,226.655,724.04,226.316,723.435L226.316,723.435z M230.294,675.647"/>
			<path fill-rule="evenodd" clip-rule="evenodd" d="M231.258,676.485c0.626,0.029,1.238,0.102,1.837,0.215
				c0.574,0.109,1.136,0.256,1.687,0.436c0.536,0.174,1.061,0.379,1.577,0.611c2.674,1.203,5.092,3.148,7.36,5.328
				c-2.128-2.127-4.382-4.1-6.85-5.477c-0.445-0.248-0.897-0.479-1.356-0.684c-0.465-0.211-0.938-0.398-1.42-0.561
				c-1.176-0.398-2.402-0.645-3.685-0.703c-6.585-0.49-12.841,3.311-14.453,9.885C218.947,679.913,223.176,675.884,231.258,676.485
				L231.258,676.485z M225.432,717.091c0,1.07,0.089,2.125,0.287,3.158c0.242,1.266,0.65,2.498,1.265,3.682
				c0.696,1.439,1.576,2.705,2.587,3.783c-1.372-1.238-2.553-2.789-3.438-4.617c-0.595-1.146-0.997-2.34-1.242-3.562
				c-0.216-1.08-0.311-2.188-0.311-3.309c0.001-3.727,1.053-7.637,2.19-11.41c1.537-5.096,3.231-9.941,2.704-13.746
				c-0.343-2.471-1.247-4.592-2.554-6.086c1.765,1.475,2.992,3.945,3.404,6.92C231.245,698.532,225.42,708.321,225.432,717.091
				L225.432,717.091z M226.316,723.435C226.655,724.04,226.655,724.04,226.316,723.435L226.316,723.435z M266.903,695.327
				c2.482-1.494,3.638-4.465,1.997-8.779c-0.278-0.326-0.575-0.641-0.893-0.945c0.002,0.004,0.004,0.008,0.005,0.014
				c0.004,0.008,0.007,0.016,0.01,0.023c0.432,1.115,0.677,2.143,0.76,3.078c0.218,2.428-0.651,4.24-2.167,5.396
				c-0.36,0.273-0.757,0.51-1.185,0.709c-2.346,1.098-5.613,1.059-8.822-0.205c-0.05-0.021-0.1-0.039-0.149-0.061
				c-1.857-0.754-3.657-2.174-5.473-3.912c2.105,2.113,4.176,3.873,6.323,4.746c2.975,1.207,6.013,1.361,8.333,0.529
				C266.091,695.759,266.514,695.562,266.903,695.327L266.903,695.327z M230.294,675.647"/>
			<radialGradient id="SVGID_56_" cx="240.1421" cy="698.4902" r="43.9084" gradientUnits="userSpaceOnUse">
				<stop  offset="0" style="stop-color:#00ABD4"/>
				<stop  offset="0.6" style="stop-color:#365684"/>
				<stop  offset="1" style="stop-color:#000000"/>
			</radialGradient>
			<path fill-rule="evenodd" clip-rule="evenodd" fill="url(#SVGID_56_)" d="M218.577,682.759c1.644-0.768,3.453-1.098,5.269-0.613
				c0.463,0.125,0.911,0.299,1.337,0.516c0.864,0.443,1.623,1.059,2.266,1.783c2.13,1.809,3.245,4.648,3.62,7.357
				c0.347,2.496-0.214,5.266-0.844,7.68c-0.749,2.875-1.716,5.695-2.519,8.559c-0.817,2.912-1.528,6.012-1.523,9.051
				c0.001,1.012,0.083,2.023,0.273,3.018c0.232,1.213,0.624,2.379,1.193,3.475l0.011,0.02c0.631,1.305,1.447,2.516,2.438,3.574
				c2.511,2.258,5.826,3.512,9.148,3.248c-1.964-1.076-3.611-2.676-4.21-4.9c-0.065-0.242-0.117-0.488-0.155-0.734
				c-0.098-0.645-0.102-1.297-0.022-1.943c0.312-2.535,1.86-4.805,3.713-6.488c0.295-0.268,0.6-0.523,0.914-0.77
				c3.354-2.609,9.294-3.674,13.401-4.635l0.146-0.033c3.817-0.896,7.965-1.965,11.311-4.051c0.723-0.449,1.413-0.953,2.052-1.516
				c0.896-0.787,1.678-1.684,2.321-2.689l0.011-0.018c2.459-3.611,3.158-8.166,1.674-12.109c-0.061,2.154-0.951,4.133-3.111,5.434
				c-0.441,0.264-0.91,0.482-1.395,0.656c-2.826,1.014-6.14,0.568-8.869-0.541c-2.47-1.004-4.708-3.041-6.562-4.902
				c-0.133-0.127-0.261-0.25-0.393-0.379c-0.251-0.246-0.5-0.496-0.747-0.746c-1.351-1.373-2.647-2.799-3.965-4.203
				c-0.714-0.758-1.431-1.51-2.163-2.242c-2.102-2.02-4.47-3.977-7.146-5.184c-0.489-0.221-0.989-0.416-1.5-0.582
				c-0.523-0.168-1.056-0.307-1.595-0.41c-0.572-0.107-1.156-0.176-1.748-0.203C225.422,676.804,221.551,678.774,218.577,682.759z"
				/>
			<radialGradient id="SVGID_57_" cx="242.0835" cy="700.1377" r="31.333" gradientUnits="userSpaceOnUse">
				<stop  offset="0" style="stop-color:#00ABD4"/>
				<stop  offset="0.7009" style="stop-color:#365684"/>
				<stop  offset="0.7426" style="stop-color:#33527E"/>
				<stop  offset="0.8004" style="stop-color:#2C466C"/>
				<stop  offset="0.8676" style="stop-color:#20334E"/>
				<stop  offset="0.9413" style="stop-color:#0F1926"/>
				<stop  offset="1" style="stop-color:#000000"/>
			</radialGradient>
			<path fill-rule="evenodd" clip-rule="evenodd" fill="url(#SVGID_57_)" d="M224.257,682.271c0.317,0.107,0.626,0.238,0.926,0.391
				c0.864,0.443,1.623,1.059,2.266,1.783c2.13,1.809,3.245,4.648,3.62,7.357c0.347,2.496-0.214,5.266-0.844,7.68
				c-0.749,2.875-1.716,5.695-2.519,8.559c-0.817,2.912-1.528,6.012-1.523,9.051c0.001,1.012,0.083,2.023,0.273,3.018
				c0.057,0.295,0.123,0.588,0.199,0.879c2.442,1.838,5.235,3.252,8.281,4.121c-0.021-0.105-0.04-0.213-0.056-0.318
				c-0.098-0.645-0.102-1.297-0.022-1.943c0.312-2.535,1.86-4.805,3.713-6.488c0.295-0.268,0.6-0.523,0.914-0.77
				c3.354-2.609,9.294-3.674,13.401-4.635l0.146-0.033c3.817-0.896,7.965-1.965,11.311-4.051c0.723-0.449,1.413-0.953,2.052-1.516
				c0.252-0.221,0.494-0.451,0.728-0.689c0.077-0.484,0.143-0.973,0.194-1.467c0.248-2.426,0.146-4.805-0.262-7.092
				c-0.372,0.205-0.76,0.379-1.159,0.521c-2.826,1.014-6.14,0.568-8.869-0.541c-2.47-1.004-4.708-3.041-6.562-4.902
				c-0.133-0.127-0.261-0.25-0.393-0.379c-0.251-0.246-0.5-0.496-0.747-0.746c-1.351-1.373-2.647-2.799-3.965-4.203
				c-0.714-0.758-1.431-1.51-2.163-2.242c-2.102-2.02-4.47-3.977-7.146-5.184c-0.489-0.221-0.989-0.416-1.5-0.582
				c-0.523-0.168-1.056-0.307-1.595-0.41c-0.411-0.078-0.829-0.137-1.251-0.17C228.939,678.485,226.418,680.187,224.257,682.271z"/>
			<radialGradient id="SVGID_58_" cx="219.5288" cy="687.2822" r="4.0976" gradientUnits="userSpaceOnUse">
				<stop  offset="0" style="stop-color:#00ABD4"/>
				<stop  offset="0.216" style="stop-color:#365684"/>
				<stop  offset="0.694" style="stop-color:#34355A"/>
				<stop  offset="0.9724" style="stop-color:#000000"/>
			</radialGradient>
			<path opacity="0.42" fill-rule="evenodd" clip-rule="evenodd" fill="url(#SVGID_58_)" d="M217.595,685.374
				c0.537-0.02,1.074-0.008,1.608,0.031c0.697,0.051,1.393,0.148,2.084,0.283c0.721-0.998,1.512-1.938,2.364-2.818
				c-1.792-0.477-3.875-0.131-6.095,1.318c-0.578,0.377-1.111,0.828-1.6,1.348C216.498,685.448,217.045,685.394,217.595,685.374z"/>
			
				<radialGradient id="SVGID_59_" cx="265.79" cy="689.5186" r="3.2231" fx="262.5826" fy="689.2008" gradientTransform="matrix(1 0 0 1.6443 0 -444.2361)" gradientUnits="userSpaceOnUse">
				<stop  offset="0" style="stop-color:#00ABD4"/>
				<stop  offset="0.3366" style="stop-color:#365684"/>
				<stop  offset="0.694" style="stop-color:#34355A"/>
				<stop  offset="0.9724" style="stop-color:#000000"/>
			</radialGradient>
			<path opacity="0.42" fill-rule="evenodd" clip-rule="evenodd" fill="url(#SVGID_59_)" d="M267.978,685.583
				c0.187,2.477-0.766,4.301-2.38,5.428c0.433,1.062,0.786,2.135,1.017,3.104c1.516-1.156,2.384-2.969,2.167-5.396
				c-0.083-0.936-0.328-1.963-0.76-3.078l-0.01-0.023C268.001,685.604,267.99,685.595,267.978,685.583z"/>
			
				<radialGradient id="SVGID_60_" cx="240.083" cy="727.1602" r="2.7989" fx="242.2306" fy="725.3653" gradientUnits="userSpaceOnUse">
				<stop  offset="0" style="stop-color:#00ABD4"/>
				<stop  offset="0.3366" style="stop-color:#365684"/>
				<stop  offset="0.694" style="stop-color:#34355A"/>
				<stop  offset="0.9724" style="stop-color:#000000"/>
			</radialGradient>
			<path opacity="0.42" fill-rule="evenodd" clip-rule="evenodd" fill="url(#SVGID_60_)" d="M241.668,730.597
				c-1.96-1.301-2.981-2.969-3.212-4.746c-0.917-0.127-1.817-0.303-2.697-0.521c0.482,1.789,1.823,3.42,4.187,4.617
				C240.49,730.22,241.064,730.437,241.668,730.597z"/>
			<radialGradient id="SVGID_61_" cx="242.1445" cy="696.5938" r="26.5315" gradientUnits="userSpaceOnUse">
				<stop  offset="0" style="stop-color:#A1DAF8"/>
				<stop  offset="0.63" style="stop-color:#008BD2"/>
				<stop  offset="0.78" style="stop-color:#365684"/>
				<stop  offset="1" style="stop-color:#1C4F76"/>
			</radialGradient>
			<path opacity="0.35" fill-rule="evenodd" clip-rule="evenodd" fill="url(#SVGID_61_)" d="M231.705,677.269
				c-0.001-0.002-0.002-0.002-0.003-0.002c-0.164-0.014-0.329-0.023-0.494-0.031c-5.306-0.395-9.001,1.229-11.873,4.574
				c1.767-0.385,3.688-0.484,5.687-0.25c0.001,0,0.001,0,0.002,0c0.479,0.057,0.962,0.133,1.449,0.229
				c0.365,0.07,0.732,0.154,1.101,0.248c12.44,2.844,18.078,19.4,26.377,24.213c5.567,3.229,10.845,1.838,14.352-2.979
				c0.144-0.197,0.281-0.398,0.413-0.605l0.011-0.018c0.205-0.301,0.396-0.605,0.577-0.918c1.984-3.445,2.458-7.576,1.098-11.191
				c-0.061,2.154-0.951,4.133-3.111,5.434c-0.078,0.047-0.156,0.09-0.235,0.135c-0.372,0.205-0.76,0.379-1.159,0.521
				c-0.046,0.016-0.092,0.033-0.138,0.047c-2.795,0.951-6.046,0.502-8.73-0.588c-2.47-1.004-4.708-3.041-6.562-4.902l-0.393-0.379
				c-0.251-0.246-0.5-0.496-0.747-0.746c-1.351-1.373-2.647-2.799-3.965-4.203c-0.029-0.029-0.059-0.061-0.087-0.092
				c-0.685-0.729-1.374-1.447-2.076-2.15c-2.102-2.02-4.47-3.977-7.146-5.184c-0.021-0.01-0.042-0.02-0.063-0.029
				c-0.468-0.207-0.948-0.395-1.436-0.553c-0.33-0.105-0.663-0.201-1-0.281c-0.197-0.047-0.396-0.09-0.595-0.129
				C232.544,677.36,232.127,677.302,231.705,677.269z"/>
		</g>
	</g>
</g>
</svg>
